<?xml version="1.0" encoding="UTF-8"?>
<svg id="Layer_1" data-name="Layer 1" xmlns="http://www.w3.org/2000/svg" viewBox="0 0 899 534">
  <defs>
    <style>
      .cls-1 {
        fill: #fff;
      }
    </style>
  </defs>
  <g>
    <path class="cls-1" d="M176.1,414.29c-2.62-.62-5.2-1.37-7.8-2.08-1.46-.4-2.88-.87-4.3-1.36,2.77,.8,5.81,1.44,9.08,2.39-5.04-6.93-9.09-12.49-13.13-18.06-.48-.66-.84-1.44-1.43-1.95-4.7-4.03-4.71-4.16,.37-8.3,1.19,2.81,2.35,5.56,3.73,8.82,.49-1.25,.8-2.05,1.14-2.94,1.88,.61,3.72,1.2,5.56,1.8,.21-.84,.43-1.68,.77-2.97,3.12,4.68,5.98,8.97,8.84,13.25,.88,.31,1.76,.61,2.65,.92,2.07-3.62,4.15-7.23,6.22-10.85,.69,.64,1.38,1.28,2.07,1.92-.75,1.51-1.5,3.03-2.25,4.54,.42,.39,.84,.79,1.26,1.18,2.7-2.8,5.4-5.61,8.09-8.41,.21,.1,.42,.21,.63,.31-.54,1.42-1.05,2.85-1.62,4.26-1.5,3.72-3.03,7.43-4.52,11.15-.89,2.22-.92,3.57-4.56,1.97-2.9-1.27-7.52,1.38-11.5,3.25,2.21,.52,5.06,2.11,6.6,1.52-.16,.14-.34,.34-.53,.6-.34-.02-.7,0-.98-.04-1.48-.18-2.95-.56-4.39-.91Z"/>
    <path class="cls-1" d="M146.73,271.65c-.11,.96-.12,1.98-.16,3.01-.09,2.79-.2,5.69-1.01,8.33-.8,2.6-1.83,5.13-2.89,7.65,.15-.61,.3-1.21,.43-1.8,.11-.49,.23-.98,.36-1.48,.51-.69,.87-1.54,.99-2.55,.06-.54,.13-1.11,.19-1.68,.71-2.53,1.34-5.07,1.37-7.57,0-.36-.03-.69-.08-1.01,.22-.99,.49-1.97,.79-2.91Z"/>
    <path class="cls-1" d="M549.75,144.07c4.02-2.02,8.24-4.03,12.41-3.94,12.38,.26,24.75,1.3,37.12,2.11,5.49,.36,10.97,.9,16.45,1.36,.02,.33,.04,.65,.06,.98-1.85,.2-3.7,.64-5.54,.57-10.76-.4-21.59-.3-32.26-1.57-9.5-1.13-18.8-3.34-28.23,.49Zm100.16-5.57c-1.02,.21-1.72,.49-2.42,.48-28.97-.36-57.93-.74-86.9-1.15-5.09-.07-10.17-.42-15.26-.48-15.44-.19-30.88-.5-46.32-.37-8.47,.07-16.94,.78-25.39,1.47-12.26,1.01-24.5,2.21-36.73,3.42-10.05,.99-20.1,1.95-30.12,3.21-11.3,1.42-22.69,2.58-33.82,4.94-11.68,2.47-23.18,5.92-34.56,9.59-4.23,1.36-7.65,5.12-11.84,6.79-18.04,7.18-32.63,19.44-47.44,31.41-7.39,5.97-14.58,12.19-21.87,18.3-.26-.27-.52-.55-.78-.82,2.08-1.87,4.13-3.8,6.26-5.61,11.2-9.54,22.19-19.33,33.69-28.49,14.43-11.49,30.94-19.47,47.63-27.12,3.57-1.63,7.31-4.3,9.39-7.52,7.67-11.87,19.74-13.89,32.11-15.54,1.19-.16,2.85,.23,3.71,1.01,4.66,4.26,9.94,2.15,14.99,1.61,13.73-1.46,27.44-3.18,41.17-4.67,5.6-.61,11.24-.78,16.84-1.39,13.57-1.48,27.11-3.26,40.69-4.59,5.12-.5,10.42,.52,15.47-.25,6.2-.95,10.94,1.35,16.13,4.11,5.11,2.73,10.85,5.4,16.48,5.84,14.05,1.1,28.2,.85,42.31,1.32,2.93,.1,4.22-1.11,5.72-3.49,3.2-5.07,7.02-9.76,10.58-14.6,.35,.24,.71,.49,1.06,.73-3.12,5.49-6.24,10.97-10.17,17.88,17.47-1.62,33.88-5.54,49.39,4.01Zm48.96,4.07c-6.23,5.51-11.88,.34-17.27,1.16-1.02,.15-2.23-.92-3.35-1.42,.13-.48,.27-.95,.4-1.43,6.4,.54,12.8,1.07,20.22,1.69Zm-101.58,304.97c5.67-2.77,11.32-6.2,18.07-1.72-5.89,1.32-11.66,3.31-18.07,1.72Zm-65.09-5.45c3.69,.69,7.38,1.37,12.23,2.27-5.05,2.84-9.71,2.18-12.23-2.27Zm-291.48-18.41c.06-.43,.12-.86,.18-1.29,5.53,.79,11.06,1.58,16.58,2.37-.06,.43-.12,.86-.18,1.29-5.53-.79-11.06-1.58-16.59-2.37Z"/>
    <path class="cls-1" d="M137.66,317.54c.19,.7,.26,1.47,.11,2.32-1.91,10.81,.46,21.04,5.08,30.85,.5,1.07,.62,2.11,.46,3.06,2.48,.02,4.81,1.61,4.57,4.79-.69,9.15-.54,18.29,.56,27.43,.52,4.33,.75,9.86,2.55,13.87,1.22,2.73,3.06,4.88,4.22,7.54,1.27,.52,2.53,1.04,3.81,1.55-.35-.18-.71-.35-1.05-.55-1.66-.98-1.06-5.8-1.36-7.99-1.81-3.28-4.23-5.95-4.77-8.97-1.5-8.41-2.42-16.95-3.14-25.47-.3-3.59-.04-6.93,2.38-10.57,3.54-5.32,5.24-11.86,7.72-17.89,2.17-5.28,7.09-10.45,11.34-9.89,6.56,.87,5.31-3.36,6.86-6.09,.83-1.45,1.76-2.84,3.12-5-20.05,6.02-28.83,20.02-31.54,39.46-1.75-1.77-3.07-3.53-3.99-5.47-1.04-2.18-1.95-4.47-2.5-6.82-1-4.3-2.11-8.65-2.34-13.02-.11-2.06,2.13-4.13,2.59-6.34,1.27-6.13,1.41-12.61,3.4-18.47,2.98-8.78,5.49-18.4,16.44-21.36,1.18-.32,1.95-2.18,3.08-3.53,.14,.95,.26,1.75,.27,1.8,8.41-.29,16.47-.98,24.51-.76,12.38,.34,18.35,5.49,21.51,15.54,4.94,15.73,9.97,31.43,14.82,47.19,.96,3.12,2.45,4.73,6.82,4.24-3.66-1.68-6.76-2.95-2.5-6.29,.76-.59,1.02-2.43,.81-3.57-1.42-7.92-3.4-15.76-4.45-23.72-.82-6.23-.92-12.61-.67-18.9,.2-5.03,1.4-10.02,2.16-15.03,.49-3.23-.48-5.35-3.93-6.3-1.38-.38-2.45-1.87-3.95-3.08,3.52-1.19,6.69-1.4,8.45-3.09,1.83-1.76,2.36-4.93,3.35-7.52,2.34-6.14,4.82-12.23,6.81-18.49,.64-2.01,.79-5.45-.38-6.5-2.27-2.03-5.15-3.72-9-1.59-3.63,2.01-7.97,2.74-12,4.03-.12-.4-.24-.8-.36-1.2,2.2-.75,4.4-1.52,6.61-2.27-4.45,1.33-9.04,2.38-13.41,3.93-6.1,2.15-11.92,1.95-18.16,3.01-6.17,1.05-12.4,2.68-18.41,4.37-6.05,1.7-10.32,5.59-15.84,8.29-.14,.15-.28,.29-.45,.43-3.63,3.05-6.59,7.79-9.13,11.78-.14,.23-.28,.46-.41,.7,.77-.65,1.89-1.06,3.54-1.12,2.44-.09,4.95,.23,7.31-.25,13.45-2.75,26.83-5.89,40.31-8.46,6.44-1.23,13.04-1.69,19.6-2.14,3.83-.26,7.38,2.85,8.27,6.89-6.02-4.74-12.4-3.08-18.75-1.99-15.72,2.7-31.51,5.07-47.14,8.27-3.44,.7-7.2,3.65-9.22,6.64-4.16,6.17-7.24,13.06-10.76,19.66-.13-.06-.26-.12-.4-.18-.31,.66-.66,1.31-1.06,1.91,.01,.21,.03,.41,.03,.62,.02,.74-.11,1.39-.33,1.97-.1,.7-.33,1.38-.69,1.97,0,.11,0,.22,0,.33-.11,1.16-.26,1.74-.67,2.67-.02,.15-.03,.3-.06,.46-.31,1.79-1.1,3.5-1.32,5.3-.27,2.26,.42,4.72,.7,7Zm75.2-77.29c-2.42,1.79-4.09,3.93-6.13,4.37-7.71,1.69-15.63,2.46-23.29,4.3-5.86,1.41-12.1,2.96-16.97,6.24-4.57,3.07-6.72,9.97-14.26,6.93,4.87-7.47,13.27-10.29,21.42-12.61,12.67-3.61,25.65-6.09,39.24-9.22Zm-71.82,62.94c-.79,5.4-1.48,10.17-2.19,15.03-1.88-5.33-2.01-10.32,2.19-15.03Z"/>
    <path d="M139.75,330.68c.23,4.37,1.34,8.72,2.34,13.02,.55,2.34,1.46,4.64,2.5,6.82,.92,1.94,2.24,3.7,3.99,5.47,2.7-19.43,11.49-33.44,31.54-39.46-1.35,2.16-2.29,3.55-3.12,5-1.55,2.73-.3,6.96-6.86,6.09-4.25-.56-9.17,4.61-11.34,9.89-2.47,6.03-4.18,12.57-7.72,17.89-2.42,3.64-2.69,6.99-2.38,10.57,.72,8.52,1.64,17.06,3.14,25.47,.54,3.01,2.96,5.69,4.77,8.97,.3,2.19-.3,7.01,1.36,7.99,.34,.2,.7,.37,1.05,.55,1.64,.66,3.3,1.29,4.99,1.88,2.77,.8,5.81,1.44,9.08,2.39-5.04-6.93-9.09-12.49-13.13-18.06-.48-.66-.84-1.44-1.43-1.95-4.7-4.03-4.71-4.16,.37-8.3,1.19,2.81,2.35,5.56,3.73,8.82,.49-1.25,.8-2.05,1.14-2.94,1.88,.61,3.72,1.2,5.56,1.8,.22-.84,.43-1.68,.77-2.97,3.12,4.68,5.98,8.97,8.84,13.25,.88,.31,1.76,.61,2.65,.92,2.07-3.62,4.15-7.23,6.22-10.85,.69,.64,1.38,1.28,2.07,1.92-.75,1.51-1.5,3.03-2.25,4.54,.42,.39,.84,.79,1.26,1.18,2.7-2.8,5.4-5.61,8.09-8.41,.21,.1,.42,.21,.63,.31-.54,1.42-1.05,2.85-1.62,4.26-1.5,3.72-3.03,7.43-4.52,11.15-.89,2.22-.92,3.57-4.56,1.97-2.9-1.27-7.52,1.38-11.5,3.25,2.21,.52,5.06,2.11,6.6,1.52,.22-.19,.41-.28,.57-.3,3.13-1.75,4.31-.67,6.48,1.79,1.31,1.49,4.6,1.34,7.04,1.69,7.39,1.06,14.8,2.07,22.21,2.98,6.28,.78,12.58,1.4,19.68,2.18-2.11-1.35-3.6-2.3-5.83-3.73,9.85-.56,19.01-1.98,27.91,1.87,.46,.2,.91,.53,1.38,.55,11.6,.55,23.21,.93,34.8,1.62,11.06,.66,22.09,2.07,33.16,2.37,10.42,.28,20.86-.57,31.3-.68,4.64-.05,9.3,.43,13.94,.81,9.86,.8,19.72,1.69,29.57,2.57,.28,.02,.53,.33,.79,.5-1.73,3.5-1.68,3.18-5.3,2.57-3.01-.51-6.12-.44-9.18,.19,5.94-.8,13.07,5.24,18.51-2.29v5.94c1.48-1.19,2.28-1.71,2.93-2.38,1.16-1.2,2.23-2.48,3.34-3.72,1.11,1.15,2.22,2.3,3.66,3.8,1.03-.5,2.44-1.18,4.07-1.97,.35,.95,.68,1.83,1.13,3.05,3.47-4.44,7.02-3.35,10.7-.42,.32,.26,1.44-.74,2.18-.71,2.54,.1,5.12,.19,7.61,.66,5.51,1.05,11.67,4.49,16.31,3.02,7.28-2.31,13.49,1.13,20.15,.57,3.84-.32,7.68-.84,11.52-.97,5.12-.17,10.25-.04,15.38-.04,.23,.5,.46,1,.69,1.5-1.17,1.43-2.33,2.87-3.25,4,3.83,.42,7.93,.97,12.04,1.26,1.03,.07,2.44-.36,3.11-1.08,2.39-2.57,4.4-2.84,6.06,.59,6.47-4.91,13.04-4.06,20.11-2.16,6.87,1.84,14.05,2.47,21.07,3.77,2.99,.55,5.92,1.41,8.86,2.18,2.65,.7,5.28,1.47,9.54,2.66-1.2-3.52-1.9-5.6-2.97-8.75,9.66,0,19.31,.74,28.76-.32,4.62-.52,9.04,.96,13.56-.08,1.23-.28,2.79,.83,4.5,1.41,1.23-.93,2.66-2.01,4.31-3.26,1.64,1.2,3.53,3.59,5.01-.22,4.32,3.68,7.94,4.43,13.25,2.67,6.47-2.14,13.6-4.86,20.65-.35,1.49,.95,3.97,.34,6,.45,.05-.42,.11-.84,.16-1.26-1.46-.49-2.91-.98-4.37-1.48-.03-.47-.06-.94-.08-1.42,3.19,0,6.39-.11,9.58,.05,1.42,.07,2.85,1.1,4.22,.99,11.64-.94,23.29-1.91,34.89-3.22,1.86-.21,3.41-2.38,5.31-3.17,2.26-.95,4.76-1.3,7.11-2.06,5.16-1.67,10.3-3.43,16.45-5.49-2.87-2.42-4.94-4.16-7.35-6.19-.45,1.17-.79,2.08-1.39,3.65-1.79-1.94-3.21-3.47-4.48-4.84-2.4,.97-4.86,1.97-7.46,3.02-2-3.12,5.3-8.26-2.15-11.4,.3,2.25,1.01,3.98,.6,5.38-.71,2.4-.46,6.83-5.44,4.01-.54-.3-2.1,1.22-3.73,2.22-.74-2.17-1.44-4.24-2.59-7.62-.72,3.14-1.18,5.13-1.6,6.93-2.36-.27-4.37-.4-6.35-.75-1.66-.29-3.28-.84-4.2-1.08h-13.51c-.24-.34-.47-.68-.71-1.01,3.23-2.23,6.46-4.47,9.1-6.29,1.63-3.01,3.21-5.69,4.54-8.49,.59-1.24,.69-2.72,.98-4.1,.45-2.13,.86-4.27,1.5-7.47-2.78,3.38-4.91,5.97-7.04,8.57-.46-.36-.93-.73-1.39-1.09,4.12-5.22,8.24-10.44,12.36-15.65-4.38,1.63-7.7,7.07-13.21,3.27-1.08-.74-1.52-2.4-2.93-4.79,8.81,4.67,17.27-.6,17.35-9.2,.03-2.97,0-5.93,0-9.2,3.58-.51,6.99-.95,10.38-1.49,9.35-1.51,12.36-9.56,16.75-16.24,4.38-6.66,4.93-13.74,3.18-21.36-.48-2.09,.51-4.51,.85-6.78,.96-6.34,2.61-12.67,2.67-19.02,.04-4.37-2.12-8.76-3.22-12.83-.58,6.52-1.15,13.06-1.82,19.6-.04,.35-1.01,.6-1.56,.89-1.76-1.96-3.54-3.95-5.92-6.6,.86-2.74,2.01-6.43,3.32-10.61-4-2.23-1.55-6.68-1.47-10.55,.13-6.61,.77-13.21,.73-19.81,0-1.18-2.11-2.54-3.49-3.44-.7-.46-1.97-.21-2.94-.04-9.46,1.64-14.13-4.27-18.43-11.49,7.45,.45,14.5,.87,21.7,1.31,.37,2.96,.66,5.31,.95,7.66h1.5c-1.87-6.96,7.03-12.83,.82-20.12v8.29c-3.25-7.66-6.09-14.33-8.92-21-.53,.14-1.06,.28-1.59,.42-.23,1.16-.46,2.33-.78,3.91-3.56,0-7.2-.01-10.85,0-2.84,.01-4.82,.4-2.69,4.02,1.04,1.76,1.29,3.99,2.01,6.35-5.41,1.26-4.43-4.51-8.1-6.32,.74,2.49,1.28,4.32,1.96,6.59-1.13,.12-2.2,.34-3.26,.34-20.72,.02-41.43-.08-62.15,.1-3.84,.03-5.69-1.15-6.63-4.91-1.49-5.95-6.03-9.15-12.2-9.17-8.17-.03-16.34,.07-24.5-.06-1.91-.03-4.73-.12-5.56-1.29-3.5-4.93-8.39-3.55-13.01-3.65-2-.04-4.02-.16-6,.02-4.66,.44-6.97-1.59-8.72-6.01-4.55-11.46-9.8-22.63-14.66-33.97-2.76-6.46-5.29-13.02-8.57-21.13,7.18,2.3,12.93,3.96,18.51,6.07,1.25,.47,2.13,2.42,2.8,3.86,4.04,8.66,8,17.36,11.91,26.07,2.42,5.4,4.76,10.83,7.06,16.28,1.06,2.51,2.42,3.9,5.52,3.92,7.98,.04,15.96,.61,23.95,.85,23.61,.73,47.22,1.51,70.83,2.05,11.77,.27,23.55,.05,35.51,.05-8.3-23.04-27.82-37.78-44.79-55.68,4.55-.6,8.03-.65,11.23-1.63,1.81-.56,3.16-2.63,4.72-4.02-1.52-.92-2.97-2.43-4.59-2.65-6.32-.86-12.71-1.16-19.04-1.95-13-1.62-25.95-3.65-38.97-4.97-2.94-.3-7.03-2.35-9.25,2.05,2.86,.58,5.7,1.48,8.59,1.69,9.99,.76,20,1.28,30,1.9-.01,.72-.02,1.43-.03,2.15-3.61,0-7.24,.23-10.82-.05-6.23-.48-12.43-1.62-18.66-1.86-14.72-.58-29.47-1.37-44.18-.93-7.82,.24-15.54,3.01-23.35,4.37-3.08,.54-6.33,.69-9.42,.33-1.59-.18-3-1.87-4.46-2.86-1.62,.12-3.93,.94-5.43,.18-.92-.47-.62-3.36-.98-6.03-1.23,2.53-2.22,4.54-3.76,7.7-10.58-.89-21.73-2.28-32.92-2.64-10.26-.34-20.55,.46-30.83,.7-5.16,.12-10.35-.15-15.49,.16-19.78,1.22-39.57,2.33-59.3,4.04-13.41,1.16-26.8,2.88-40.08,5.08-7.64,1.27-15.03,4.01-22.53,6.08,.12,.5,.24,.99,.37,1.49,6.81-1.3,13.58-2.79,20.42-3.85,13.53-2.09,27.05-4.27,40.65-5.8,14.97-1.68,30.02-2.68,45.04-3.95,1.66-.14,3.4-.41,4.97-.04,1.12,.27,1.99,1.52,2.98,2.33-.96,.83-1.87,2.28-2.9,2.37-6.09,.57-12.22,.67-18.32,1.21-17.72,1.57-35.47,2.88-53.12,5.03-13.81,1.68-27.49,4.5-41.24,6.74-13.44,2.18-24.65,9.02-34.94,17.34-13.23,10.7-26.07,21.87-39.01,32.92-1.97,1.68-3.63,3.4-5.29-.14-.89-1.91-1.75-5.53-2.54-5.5-3.79,.11-7.95,.45-11.18,2.19-2.27,1.23-3.26,4.83-4.92,7.52-.27-.86-.65-2.05-1.05-3.31-3.29,1.47-4.09,3.57-2.3,6.73,2.22,3.94,.47,6.15-3.43,7.39-.2,.06-.4,.14-.61,.2-1.47,.55-2.97,1.04-4.49,1.5-2.2,.75-4.4,1.52-6.61,2.27,.12,.4,.24,.8,.36,1.2,4.03-1.29,8.37-2.02,12-4.03,3.85-2.13,6.73-.44,9,1.59,1.18,1.05,1.02,4.49,.38,6.5-1.99,6.25-4.47,12.35-6.81,18.49-.99,2.59-1.52,5.76-3.35,7.52-1.76,1.69-4.94,1.9-8.45,3.09,1.5,1.22,2.57,2.7,3.95,3.08,3.46,.95,4.42,3.08,3.93,6.3-.76,5.01-1.96,10-2.16,15.03-.25,6.29-.15,12.67,.67,18.9,1.05,7.96,3.03,15.8,4.45,23.72,.2,1.14-.05,2.97-.81,3.57-4.26,3.33-1.16,4.6,2.5,6.29-4.37,.49-5.86-1.11-6.82-4.24-4.84-15.76-9.88-31.46-14.82-47.19-3.16-10.06-9.12-15.2-21.51-15.54-8.04-.22-16.1,.46-24.51,.76,0-.05-.13-.85-.27-1.8-1.12,1.34-1.89,3.21-3.08,3.53-10.95,2.96-13.46,12.58-16.44,21.36-1.99,5.86-2.12,12.33-3.4,18.47-.46,2.21-2.7,4.28-2.59,6.34ZM679.25,185.97c-1.07-.05-2.26,2.29-3.55,3.71-12.46-6.59-17.99-11.97-19.72-19.84,1.85,1.2,3.4,2.2,4.95,3.21,.3-1.5-.1-2.15-.44-2.84-.32-.64-.56-1.32-.84-1.99,4.74,3.59,6.93,11.96,15.84,6.38-.89-1.61-1.9-3.43-3.06-5.53,13.69,2.85,29.68,26.68,32.93,35.21l-1.03,.87c-3.15-3.14-6.3-6.27-9.65-9.61,.7,2.98,1.37,5.81,2.03,8.65-.59,.25-1.17,.49-1.76,.74-1.49-2.95-3-5.88-4.47-8.84-1.3-2.62-2.03-5.82-4-7.74-1.67-1.62-4.74-2.25-7.24-2.37Zm-72.91-5.28c7.57,.3,13.36,1.07,10.52,10.95-3.61-3.76-6.76-7.03-10.52-10.95Zm-6-8.1l.94-1.48c1.47,.89,2.93,1.77,4.74,2.86,3.54-8.18,8.51-2.35,13.22-1.71-1.74-1.7-3.71-2.79-5.52-4.1-1.77-1.27-3.38-2.74-5.96-4.86,6.79,1.2,11.99,2.13,17.2,3.05,1.64,.73,2.68,2.98,4.06,5,1.35,1.97,3.04,3.69,4.83,5.82-1.18-4.75-2.18-8.78-3.18-12.8,.4-.2,.81-.4,1.21-.59,3.12,3.4,6.24,6.79,9.9,10.78,.53-2.21,.82-3.4,1.1-4.58,1.35,.2,2.57,.37,4.38,.64-.43-2.17-.76-3.82-1.09-5.46,.37-.25,.75-.5,1.12-.75,5.28,6.81,10.56,13.63,15.84,20.44-.34,.59-.69,1.17-1.03,1.76-3.99-4.42-8.34-4.38-13.89-1.55,3.14,4.34,6.19,8.54,9.23,12.73,1.65-.97,3.25-2.64,4.97-2.78,4.6-.38,9.26-.28,13.88-.03,2.38,.13,4.72,.96,7.07,1.48-.07,.52-.14,1.03-.21,1.55h-25.49c-.87,.12-2.09,.67-2.56,.29-3.54-2.88-6.93-5.93-11.42-9.86,2.33,3.42,3.89,5.7,5.77,8.46-5.69-4.22-10.89-8.09-16.09-11.95-.17,.24-.35,.48-.52,.72,.84,1.26,1.68,2.52,2.51,3.78-.19,.17-.37,.35-.56,.52-1.52-1.1-3.03-2.21-4.45-3.24-6.35,3.24-1.06,6.63,.36,10.78-4.39-2.91-7.74-5.13-11.08-7.34,.29-.43,.58-.87,.86-1.3,1.25,.25,2.51,.49,4.59,.9-4.41-6.77-8.46-12.08-16.66-12.71-2.78-.21-5.38-2.9-8.06-4.45Zm116.7,52.65c10.62-1.29,12.02-.84,12.32,3.99-9.38,2.09-12.03,1.23-12.32-3.99Zm-472.93,6.17c-4.48-4.23-4.93-10.21-.91-12.38,.29,3.98,.58,7.89,.91,12.38Zm11.72,4.35c-5.65-.44-8.39-11.3-4.67-19.12,.32,4.83,.54,8.29,.77,11.73,6.18-.06,2.58,4.45,3.9,7.39Zm11.02-14.8c-.6,3.68-1.07,6.57-1.63,9.99-5.3-4.26-5.63-7.28,1.63-9.99Zm9.17,.41c1.73,.81,3.12,1.46,6.6,3.09-2.74,2.86-4.68,4.87-6.62,6.88-.55-.56-1.11-1.11-1.66-1.67,.52-2.58,1.04-5.15,1.68-8.3Zm91.72-51.43c-1.12,2.55-2.21,4.99-3.26,7.45-.56,1.33-1.23,2.66-1.51,4.06-.64,3.19-.19,7.01-1.81,9.51-2.25,3.47-5.57,6.8-9.21,8.66-4.68,2.39-10.14,3.26-15.56,4.88,1.3,1.1,2.38,2.02,3.83,3.25-2.12,2.34-2.32,6.49-7.13,5.28-.34-.08-1.27,2.2-2.37,4.19-4.26,.33-9.79,.76-15.44,1.19,3.68,2.1,7.1,4.04,10.52,5.99-.23,.44-.46,.89-.69,1.33-1.94-1.02-3.87-2.05-5.81-3.06-4.79-2.48-9.49-.7-9.39,2.45-5.09,2.39-9.9,2.16-13.99-1.71-.05-.04-.29,.13-.44,.19-7.88,3.21-13.13-2.05-18.99-5.42,7.57-22.63,68.08-54.87,91.26-48.24Zm5.87-2.68c-3.51,9.87-7.01,19.73-10.52,29.6-.55-.2-1.1-.39-1.65-.59,4.01-9.68,4.8-20.57,10.59-29.59,.53,.19,1.05,.39,1.58,.58Zm6.77,41.28c.76,1.49,1.52,2.97,2.27,4.44-.48,.34-.96,.67-1.44,1.01-4.13-3.81-8.27-7.61-13.17-12.13,3.75,.71,6.48,1.23,9.78,1.86,.02,.18,.18,1.49,.4,3.29,1.75-1.67,3.04-2.91,4.34-4.14l1.06,1.06c-1.08,1.54-2.17,3.08-3.24,4.61Zm57.06-45.14c-1.65,7.39-3.25,14.79-5.19,22.11-.36,1.36-2.08,3.13-3.38,3.33-4.8,.73-9.7,.82-14.55,1.27-5.09,.47-10.16,1.06-15.25,1.6-.11,.44-.23,.87-.34,1.31,2.2,1.69,4.41,3.38,6.97,5.34,.59-2.24,.93-3.55,1.72-6.53,2.11,3.15,2.98,5.69,4.75,6.76,1.93,1.17,4.69,.97,7.63,1.45-1.46,2.43-2.87,4.77-3.77,6.26-7.6,.03-15.18,2.31-19.47-4.55-1.33,2.25-2.4,4.07-3.75,6.35-2.7-2.92-4.77-5.15-7.49-8.09h14.68c-1.52-1.91-3.47-4.34-5.07-6.34-3.38,.91-6.36,1.72-9.56,2.58-2.86-7.46-5.54-3.29-8.14,.47-.97-1.14-1.66-1.95-2.37-2.78-1.25,.96-2.33,1.79-4.08,3.14-.33-3.26-1.34-5.98-.69-8.23,1.79-6.15,3.99-12.22,6.64-18.05,.82-1.8,3.47-3.57,5.5-3.86,7.38-1.06,14.85-1.52,22.29-2.15,10.73-.91,21.47-1.78,32.29-2.68,.23,.44,.71,.92,.63,1.28Zm8.3,44.34c-5.86,4.31-9.91,2.63-11.95-4.97,4.59,.13,9.91-1.32,11.95,4.97Zm-1.4-16.65c-1.47-1.55-3.08-3.27-4.16-4.4-1.59,1.32-3.02,2.51-4.46,3.7-.02-6.67,.34-12.49,1.96-17.94,2.95-9.93,.97-11.58,10.98-10.08-.59,9.58,1.91,19.53-4.34,28.73Zm8.23,24.11c-.76,6.71-1.01,12.43-2.11,17.98-2.46,12.37-6.01,24.56-7.73,37.01-.74,5.34-3.33,5.53-6.97,6.81-4.88,1.71-10.09,3.56-13.98,6.78-7.28,6.02-9.6,15.06-12.38,23.81-3.33,10.49-7.53,20.71-11.6,31.71,1.03,.73,6.7-2.4,5.38,3.4-1.7-.45-4.22-1.58-4.55-1.12-3.51,4.85-8.5,2.06-12.46,2.1-10.31,.09-20.63-1.21-30.96-1.69-5.81-.27-11.66-.17-17.48,.02-3.1,.11-4.98-.45-5.41-4.04-.41-3.38-1.39-6.72-2.44-9.98-.31-.94-1.75-1.51-2.67-2.26-.19,.29-.38,.58-.57,.87,1.52,4.88,3.04,9.77,4.64,14.94-32.7,.56-64.4,1.11-96.22,1.66-.8-2.94-1.84-5.58-2.21-8.31-1.24-9.31-2.75-18.64-3.18-28-.4-8.57,.05-17.25,.95-25.79,.43-4.07,2.4-7.74,8.29-7.3,4.68,.35,9.51-.86,14.23-1.64,4.5-.74,8.91-2.11,13.42-2.68,5.63-.71,11.39-.5,16.98-1.38,15.83-2.49,31.59-5.34,48.23-8.19-1.46,14.87-2.78,28.23-4.09,41.58l1.96,.12c.23-4.59,.22-9.2,.74-13.75,.88-7.68,1.84-15.38,3.26-22.97,.74-3.97,5.96-6.93,9.17-6.23,2.72,.59,5.51,.84,8.66,1.29v-5.73c1.91,2.04,3.37,5.03,5.41,5.5,3.8,.89,7.97,.61,11.94,.26,3.86-.34,7.66-1.38,11.45-2.11-.14-1.48-.25-2.62-.35-3.75,.26-.09,.52-.18,.78-.27,1.18,2.05,2.36,4.1,3.82,6.64,2.36-4.78,3.41,.38,5.08-.67,3.55-.81,7.1-1.61,10.99-2.5-.76-1.46-1.33-2.57-1.96-3.77,6.79-.02,11.55-3.21,11.16-7.64-1.28,.33-2.49,.83-3.73,.94-11.32,1.06-22.65,2.02-33.97,3.09-3.83,.36-7.63,1.17-11.47,1.41-6.06,.39-12.14,.49-18.22,.69-1.7,.06-3.39,.07-5.09,.11v-5.14c-1.16,7.17-6.66,6.14-11.77,5.86-.8-.04-1.61-.65-2.38-.58-5.18,.5-11.51-.53-15.24,2.1-5.27,3.71-10.76,3.38-16.17,4.42-11.91,2.28-23.92,3.96-35.89,5.94-8.01,1.33-16,2.75-25.14,4.33,3.84-10.14,7.24-19.32,10.9-28.4,.32-.81,2.73-1.65,3.53-1.24,4.63,2.36,9.73,4.08,12.38,9.32,.84,1.66,3.59,4.01,4.62,3.65,4.69-1.67,9.07-4.18,14.33-6.77-4.33-.79-7.48-1.36-10.63-1.94,1.69-1.35,3.39-1.62,5.1-1.81,8.37-.96,16.75-1.8,25.11-2.86,10.32-1.3,20.6-2.98,30.95-4.12,11.59-1.28,23.24-2,34.83-3.2,14.3-1.49,28.54-3.9,42.87-4.68,16.4-.89,32.14-3.65,47.85-11.82Zm-214.8,134.58c-.81,.01-1.63-1.25-3.16-2.49h94.44c.02,.48,.05,.95,.07,1.43-1.71,.08-3.43,.22-5.14,.22-15.49,.02-30.98-.11-46.47,.05-13.25,.13-26.5,.61-39.75,.79Zm92.36,4.05c0,.68-.02,1.36-.02,2.05-30.48,.1-60.97,.69-91.38-2.05h91.4Zm84.15-44.76c.42,.13,.84,.26,1.26,.39-1.92,10.16-3.85,20.32-5.77,30.47l-1.18-.22c1.9-10.21,3.79-20.43,5.69-30.64Zm37.08-124.72c.46-7.22,.92-14.27,1.37-21.29,.87-.32,1.48-.75,2.1-.75,16.72-.2,33.45-.42,50.17-.4,1.47,0,3.52,1.34,4.3,2.66,1.79,3.03,2.97,6.43,4.68,10.32-3.05,0-5.23-.26-7.32,.05-4.16,.62-9.58,.23-12.07,2.69-2.85,2.81-5.3,2.98-8.52,3.32-2.54,.27-5.03,1.25-7.5,2.02-1.8,.56-3.54,1.3-5.33,1.97,.06,.16,.33,.84,.59,1.51-6.74-7.51-14.83,.08-22.45-2.1Zm15.11,14.42l-.81,1.58c-2.32-.98-4.64-1.96-7.31-3.08-.62,.36-1.71,1-2.55,1.49-.37-2.61-.65-4.59-.88-6.18,3.87,2.08,7.71,4.14,11.54,6.2Zm35.09-16.7c-.6,2.13-1.15,4.08-1.7,6.01-2.93-.5-5.9-1.01-9.17-1.58,5.65-5.45,8.18-6.32,10.87-4.44Zm89.31,42.43c-1.26-5-4.81-5.35-8.87-4.64-3.68,.65-7.34,1.66-11.05,1.92-11.66,.81-23.34,1.33-35.01,1.96-.22-.42-.44-.83-.66-1.25,2.41-1.2,4.76-3.27,7.24-3.45,13.38-.98,26.79-1.69,40.2-2.08,6.73-.19,7.52,.9,8.15,7.53Zm-55.45,8.84c2.74,2.45,5.03,4.5,7.93,7.09-4.92,.61-8.6,1.06-13.22,1.63,2.06-3.4,3.47-5.72,5.29-8.73Zm34.25,.04c-15.65,3.29-21.42,3.11-25.97,0h25.97Zm5.07-9.26c4.03-.52,8.01-1.04,12.87-1.67,0,3.03-.04,4.99,.01,6.95,.06,2.06,.21,4.11,.32,6.13-7.9,.76-11.25-2.16-13.21-11.41Zm11.23,18.16h-10.22c-.05-.51-.1-1.03-.15-1.54,3.52-.69,7.05-1.48,10.37,1.54Zm9.11,8.33c-1.42,1.1-2.77,3.05-4.26,3.16-9.05,.72-18.14,1.01-27.46,1.46-2.28-5.89-2.03-6.3,3.4-6.35,4.49-.05,8.98-.06,13.47-.07,4.7-.01,9.41,0,14.11,0,.24,.6,.49,1.2,.73,1.8Zm36.36-22.74c-10.5,0-20.85,.14-31.19-.18-1.21-.04-2.34-2.6-3.51-3.99,1.29-.3,2.62-.96,3.87-.83,3.25,.35,6.47,1.55,9.69,1.49,5.15-.1,10.29-.95,15.43-1.46,4.09-.41,5.57,1.82,5.71,4.98Zm2.28,12.75c-2.58,5.61-5.4,11.45-11.99,12.08-8.52,.81-17.17,.2-25.99,.2v-10.56c12.79-.58,25.12-1.14,37.98-1.72Zm.78-7.44h-36.55c0-.48-.01-.96-.02-1.44h36.54c0,.48,.02,.96,.03,1.44Zm16.99,14.23c-4.55,9.36-.55,19.78-8.29,27.84-.95-3.01-1.65-5.2-2.34-7.39,1.24-1.43,1.73-2.83,1.64-4.19-.33-4.69-.86-9.36-1.2-12.83,3.86-1.29,6.35-2.13,10.19-3.42Zm53.67,12.42c-6.92-1.72-13.54-3.41-20.19-4.99-1.14-.27-2.96-.58-3.51,.01-5.52,5.99-12.49,2.01-18.73,2.79-.57,.07-1.47-1.87-2.09-2.95-2.61-4.54,.79-8.87,.04-14.03,8.09,2.07,15.64,1.14,23.25,.41,3.75-.36,7.6,.65,11.42,.77,6.79,.21,10.28,3.17,10.66,9.73,.13,2.26-.44,4.55-.84,8.26Zm25.53,16.7c-.85,5.06-8.67,8.81-11.62,5.49-3.31-3.73-4.84-2.43-6.93,1.95-.52-5.43-2.8-7.72-7.26-7.71-.13,4.7,3.57,8.38,8.02,8.57,5.52,.24,11.04,.65,17.72,1.06-2.26,2.77-3.57,4.37-4.83,5.9-8.57-3.73-11.72-3.25-12.5,1.75,1.02-.53,2.08-1.53,3.06-1.46,1.02,.07,1.98,1.17,2.96,1.81-.72,.97-1.36,2.7-2.17,2.79-2.72,.29-5.54,.22-8.26-.17-1.04-.15-1.89-1.56-3.28-2.8,2.44-1.02,3.97-1.66,6.45-2.7-1.87-.88-2.84-1.72-3.79-1.71-11.09,.14-22.17,.36-33.25,.74-.93,.03-1.81,1.39-2.14,1.66-4.74-.49-9.37-1.23-14.02-1.39-7.1-.24-14.29-.66-21.31,.13-3.75,.42-9.47-3.25-11.42,3.85-.26,.94-3.34,1.1-5.12,1.62-.08-.29-.16-.59-.24-.88,1.32-.94,2.64-1.88,3.95-2.82-.17-.5-.34-1.01-.5-1.51-3.15,.37-6.3,.92-9.46,1.02-1.37,.04-2.78-.83-4.17-1.29,1.14-.84,2.24-2.34,3.43-2.42,8.3-.59,16.62-.77,24.92-1.3,7.48-.49,14.93-1.26,23.49-2.01-6.13-5.03-12.14-2.14-16.83-1.07-5.64,1.28-10.55,1.41-15.83-.08-.26-1.52-.5-2.89-.83-4.86-1.42,2.51-2.49,4.4-3.56,6.28-.45-.1-.9-.2-1.35-.29-.36-1.48-.72-2.97-.85-3.5-1.96-.15-3.7-.28-5.47-.42-.42-4.42,1.27-9.69-4.52-9.42-1.36-2.95-2.39-5.21-3.43-7.47-1.17,.73-2.31,1.45-3.77,2.37,1.4-5.54,5.19-6.85,9.57-6.25,6.57,.9,7.29,6.88,8.87,11.42h9.45c.24,.8,.36,1.64,.74,2.33,2.11,3.84,5.04,7.03,9.74,5.95,3.99-.92,6.13-3.94,6.25-8.43,.08-3.01,1.08-5.99,1.66-8.91,2.84,1.03,4.72,1.71,6.6,2.39-.22,.15-.44,.3-.66,.45,1.71,1.88,3.42,3.77,5.13,5.65,1.4-1.76,2.81-3.53,4.12-5.18,.38,.41,1.49,1.56,2.56,2.75,1.18,1.32,2.54,2.53,3.46,4.02,2.53,4.12,8.98,5.34,13.26,2.36-3.31-.53-7.3-.12-9.73-1.87-2.5-1.8-3.48-5.72-4.97-8.44h7.17s-.03,1.01-.03,1.01h-3.14s-.39,1.28-.39,1.28c1.51,.59,2.98,1.57,4.52,1.68,4.12,.31,8.31-.12,12.38,.43,4.98,.68,9.01-1.46,12.23-4.33,3.57-3.19,4.89-1.63,6.47,1.45,.41-1.21,.81-2.41,1.38-4.1,.91,1.46,1.53,2.45,2.32,3.7,2.15-1.88,4.04-3.54,6.2-5.43,1.53,2.68,2.72,4.77,4.01,7.02,1.55-.39,3.09-.78,5.63-1.42,0,3.96,.45,7.45-.11,10.77Zm-10.74,31.08l10.42,.56c-12.47,.75-24.91,.81-37.35,.69-1.86-.02-3.69-1.12-5.56-1.22-3.76-.2-7.56-.31-11.3,.05-2.2,.21-4.29,1.99-6.46,2.04-10.99,.25-22.01-.1-32.99,.28-7.08,.24-14.36,1.05-19.74,6.44-5.02,5.03-9.71,10.4-14.28,15.84-2.09,2.48-4.2,3.73-7.57,3.75-7.77,.05-15.56,.33-23.31,.97-13.78,1.13-27.54,2.58-41.3,3.93-3.63,.36-6.14-.38-5.73-4.25,3.43,.44,6.57,1.3,9.65,1.15,17.7-.85,35.39-1.92,53.08-2.98,5.91-.35,10.39-2.85,14.04-7.88,5.6-7.72,11.3-15.75,22.05-17.01,.97-.11,1.91-.52,2.86-.79-5.46-1.7-10.41-1.59-14.57,2.68-6.4,6.57-13.31,12.1-23.45,10.07-.8-.16-1.68,.09-2.49-.05-7.13-1.23-12.14,1.84-15.97,7.61-.75,1.14-2.2,1.82-3.32,2.71,4.76-9.74,7.21-11.21,17.01-11.22,1,0,2,.04,3-.01,10.02-.47,14.94-3.93,16.74-11.92,.19-.86-.38-1.9-.61-2.85-.44-.08-.88-.17-1.32-.25-.97,1.77-1.9,3.56-2.93,5.3-1.13,1.91-1.96,4.44-3.66,5.4-.98,.55-3.41-1.48-5.25-2.38,.45,4.1-2.55,3.86-5.28,3.68-8.74-.59-16.44,.25-20.68,9.87-.87,1.98-4.35,5.68-8.68,3.86,2.15-1.8,4.32-3.04,5.59-4.89,.76-1.11,.69-3.53-.04-4.73-1.02-1.67-2.36-1.32-4.22,.23-2.6,2.18-6.14,3.23-8.41,4.35-1.02-5.6-1.95-10.67-3.14-17.19-3.26,6.06-12.16,8.56-5.38,15.57-1.82,3.3-3.37,6.11-4.92,8.92-.49-.12-.99-.24-1.48-.36,.75-3.63,1.51-7.25,2.22-10.67-2.31,.15-4.35,.28-6.02,.39,.32,3.87,.64,7.67,.89,10.79-2.64-.73-5.11-1.41-7.57-2.09-.44,.56-.75,.36-.86,.08-4.4-11.04-8.96-22.03-13.09-33.18-1.79-4.83-7.22-8.98-3.12-14.8h-5.24c1.72-2.19,2.86-3.63,4.42-5.6-2.99,.24-6.11,1.39-7.01,.43-7.85-8.31-17.83-6.41-27.39-6.12-8.14,.25-16.27,1.09-24.73,1.7,0-4.32-.56-8.56,.1-12.59,2.38-14.51,5.14-28.96,7.86-43.41,.18-.94,1.1-2.17,1.95-2.47,4.19-1.49,8.42-3.01,12.75-3.98,15.78-3.54,31.59-6.96,47.43-10.24,9.67-2,12.65-7.61,8.82-16.67-2.6-6.16-4.39-12.69-7.3-18.69-4.97-10.28-3.14-13.08-17.44-12.6-12.77,.43-25.55,.62-38.32,1.06-3.49,.12-6.96,.74-10.57,1.15,.24-4.49,2.29-5.4,5.67-5.25,5.49,.24,11.02-.25,16.49,.13,13.82,.94,27.93-2.71,41.48,2.6,.57,.22,1.31-.02,1.97-.04,6.32-.2,12.69,0,18.95-.73,5.52-.64,7.57,3.06,9.09,6.65,6.23,14.66,12.07,29.5,17.97,44.3,1.25,3.14,2.17,6.42,3.33,9.88-6.63,.47-12.73,.79-18.81,1.37-2.91,.28-5.91,.67-8.62,1.68-5.2,1.94-7.26,7.18-6.04,13.03,.28,1.32-.54,3.25-1.48,4.36-5.25,6.23-10.77,12.22-16.05,18.43-4.02,4.72-7.81,9.64-11.84,14.63,2.56,.89,4.4,1.54,6.67,2.33-1.08-1.62-1.93-2.92-2.84-4.29,2.51-2.64,4.78-5.04,6.67-7.02,2.6,.93,4.85,1.74,7.1,2.55,.68-2.15,1.37-4.3,2.24-7.04,3.73-.03,7.74-1.12,8.81-6.47,.13-.63,1.02-1.26,1.69-1.62,5.39-2.88,14.37-1.52,18.86,2.51,2.14,1.92,4.7,3.37,7.52,5.35-3.98,12.54-13.6,22.52-19.22,34.71,5.28-5.92,10.29-12.05,13.96-18.91,5.06-9.47,7.56-11.6,16.02-10.19,5.58,.93,11.15,1.89,17,2.88v7.53c-2.5,.44-5.49,.97-8.48,1.5,.02,.5,.04,.99,.05,1.49,3.21,0,6.43-.2,9.62,.07,2.15,.18,4.76,.39,6.29,1.65,7.48,6.19,12.89,13.59,13.03,23.95,.08,5.56,1.75,7.01,7.43,6.81,11.78-.4,23.55-1.37,35.33-1.52,25.95-.33,51.91-.36,77.86-.37,4.06,0,8.11,.74,12.17,1.15,.56,2.69,1.13,5.4,1.84,8.79-6.02-7.18-13.49-9.01-22.63-5.31Zm-204.04,23.93l9.44,19.76c-.38,.18-.76,.36-1.13,.54-3.21-6.52-6.43-13.04-9.64-19.57,.44-.24,.89-.49,1.33-.73Zm78.38-6.29c-1.04,2.72-1.45,5.17-2.08,5.23-4.02,.35-8.08,.18-12.13,.18-.07-.8-.15-1.61-.22-2.41,4.34-.9,8.68-1.8,14.43-3Zm-2.82,31.98l-.47-.71c5.97-9.32,11.89-18.68,17.93-27.95,1.78-2.73,3.38-6,5.93-7.71,7.35-4.9,15.86-5.98,24.56-5.92,7.99,.06,15.98-.03,23.97-.12,23.11-.27,46.22-.62,69.33-.77,1.44,0,2.89,1.38,4.34,2.12-.21,.5-.41,1-.62,1.5-2.88-.25-5.75-.55-8.63-.74-15.87-1.06-31.59,2.18-47.52,1.34-14.18-.76-28.46,.31-42.69,.3-10.03,0-18.99,1.88-25.06,10.91-3.51,5.22-7.18,10.33-10.98,15.35-3.22,4.25-6.71,8.28-10.09,12.41Zm25.19,18.53c.07,.67,.14,1.35,.21,2.02-5.73,.52-11.46,1.03-17.19,1.55-.07-.59-.13-1.19-.2-1.78,5.72-.59,11.45-1.19,17.17-1.78Zm107.44-25.43c3.09-6.68,5.35-8.09,10.13-6.32q-4.01,7.55-10.13,6.32Zm-.52-6.89c.23-2.15,.5-4.84,1.78-5.47,4.29-2.11,8.93-3.53,13.57,.63-5.96-1.33-11.3-.82-15.35,4.84Zm-19.38,34.43l5.98-10.85c.47,.3,.95,.59,1.42,.89-1.9,3.63-3.8,7.26-5.7,10.89-.57-.31-1.14-.61-1.71-.92Zm-11.77,10.35c.35-.06,.7-.12,1.06-.18,1.75,1.12,3.5,2.23,5.61,3.58-.47,.73-1.31,2.02-2.69,4.16-1.66-3.16-2.82-5.37-3.98-7.57Zm-3.8,4.7c.76-.04,1.53-.07,2.29-.11v10.55c-.41,.05-.82,.09-1.23,.14-.35-3.53-.71-7.06-1.06-10.58Zm-21.21-61.97c-12.43,.32-24.88,.44-37.3,1.12-3.78,.21-7.85,1.33-11.11,3.22-4.04,2.35-7.37,5.92-11.01,8.96,4.42-7.16,9.42-13.55,18.81-13.91,3.1-.12,5.72-.86,7.43-3.96,.56-1.01,2.63-1.19,4.01-1.74,.13,.25,.26,.5,.4,.76-1.05,.58-2.11,1.16-3.16,1.75,.28,.54,.56,1.08,.84,1.62,6.36,0,12.72,.13,19.07-.03,17.77-.44,35.53-1.12,53.3-1.43,3.95-.07,8.43-.03,9.81,5.38,.11,.44,3.02,.9,3.38,.42,2.8-3.79,6.33-4.23,10-3.96-5.46,.79-9.41,5.3-13.82,8.91-.71-8.24-5.01-9.63-11.01-9.18-7.25,.55-14.55,1.14-21.8,.93-5.72-.16-10.21,.34-10.97,7.22-.02,.19-.79,.3-1.43,.52-.16-2.16-.3-4.12-.48-6.61-1.7,0-3.32-.04-4.95,0Zm-47.86,12.14c1.53-4.13,4.53-5.83,8.15-6.01,7.82-.39,15.67-.12,25.33-.12-1.95,2.43-2.73,4.11-4.05,4.92-7.96,4.86-17.08,3.57-25.77,4.62-3.1,.38-6.14,1.33-9.2,2.02,1.78-2.25,4.8-3.42,5.55-5.43Zm48.84,8.28h-19.12c-.03-.2-.06-.4-.09-.59h19.1c.03,.2,.07,.4,.1,.59Zm-3.07,34.79c0,3.19,.38,6.28-.12,9.23-.43,2.54-2.07,3.53-4.53,1.33-3.48-3.12-1.78-7.34,4.65-10.56Zm-20.51,15.79c.77-6.41,4.97-4.84,8.14-4.84,.86,0,1.72,1.5,2.58,2.31-.83,.84-1.58,2.29-2.5,2.41-2.58,.33-5.22,.12-8.22,.12Zm-20.04-47.4c1.4-.87,2.73-1.96,4.24-2.48,1.08-.37,2.44,.08,3.75,.17,2.12-.71,4.63-1.55,7.13-2.39,.22,.43,.45,.86,.67,1.29-1.27,1.46-2.38,3.11-3.85,4.34-3.14,2.63-10.01,1.97-11.95-.93Zm-.1-.01c-3.08,1.08-6.18,2.16-10.09,3.52,1.99-6.76,3.66-7.6,11.01-6.62-.32,1.07-.62,2.08-.92,3.09Zm-101.99,58.37c3.02-5.06,4.02-10.46,4.18-16.35,.08-2.8,1.33-7.03,5.71-6.7,13.09,.99,25.49-1.44,37.84-5.77,8.79-3.08,18.04-3.62,27.23-.34,2.9,1.04,7.03-.83,8.55,3.3,1.13,3.06,1.62,6.34,2.4,9.52,.3,1.24,.26,2.78,1,3.65,3.59,4.23,7.42,8.26,11.1,12.42,.9,1.02,1.54,2.27,2.66,3.95-1.8,.2-2.81,.59-3.67,.37-5.79-1.51-12.05,.43-17.72-2.66-1.05-.57-4.28,.69-4.94,1.94-2.76,5.24-3.9,2.07-5.42-.98-.52,1.01-.94,1.84-1.62,3.17-.97-1.9-1.61-3.16-1.84-3.6-11.92-3.78-23.07-.68-34.62,.63,.22-1.81,.38-3.18,.58-4.86-3.86,4.97-9.94,5.71-13.27,3.25h-17.92c.06,.22-.45-.58-.23-.94Zm-14.4-28.75c2.31-4.79,4.35-9.2,6.59-13.51,.34-.65,1.56-.84,2.41-1.26-.68,2.35-1.24,4.27-1.8,6.2,.47,.22,.95,.43,1.42,.65,1.63-1.89,3.26-3.78,4.89-5.68,.05,2.66-.21,4.99-1.34,6.77-1.5,2.35-3.68,4.27-5.57,6.38l1.93,1.95c2.76-2.61,5.52-5.21,8.58-8.1,.3,5.95-6.01,6.67-7.97,10.44,4.19,5.44,3.89,7.29-1.75,10.83-.21-2.76-.41-5.38-.7-9.23-1.81,3.05-3,5.05-4.89,8.22,1.32-6.1,2.34-10.81,3.57-16.46-2.73,1.43-4.05,2.12-5.38,2.81Zm-103.98,23.55c3.14-6.08,7.51-12.27,9.48-19.15,1.27-4.43,1.53-8.49,4.74-12.56,2.76-3.5,3.11-9.1,3.96-13.87,2.09-11.67,3.8-23.18,12.24-32.71,7.72-8.71,16.72-14.46,28.08-16.27,3.35-.53,8.26-1.16,10.05,.65,2.88,2.9,5.97,1.58,8.73,2.71,.87,.35,1.91,.81,2.38,1.53,1.91,2.99,3.63,6.1,5.54,9.37,1.82-1.61,2.79-2.47,4.42-3.92-3.15,7.82-2.09,9.79,4.49,9.92,.14,1.78,.27,3.55,.5,6.49,1.84-1.65,2.87-2.58,4.17-3.76v8.53c-1.08,.09-2.24,.18-3.51,.28,.99,2.63,1.83,4.85,2.8,7.44,1.59-3.59,3.04-6.84,4.48-10.09,.34,.11,.69,.21,1.03,.32-.75,3.88-1.5,7.76-2.25,11.64,.74,.5,1.49,1.01,2.23,1.51,.53-1.95,1.06-3.91,1.58-5.86,.74,.6,1.49,1.2,2.23,1.81-2.02,3.87-4.05,7.74-6.07,11.61,.47,.39,.93,.78,1.4,1.17,1.6-1.56,3.21-3.11,4.81-4.67,.22,.16,.43,.32,.65,.48-.66,2.31-1.33,4.61-1.99,6.92l.87,.38c1.5-1.7,3-3.41,4.49-5.11,.29,.19,.59,.38,.88,.57-1.95,4.48-3.89,8.96-6,13.81-1.32-3.34-2.53-6.39-3.74-9.44-.54,.12-1.09,.24-1.63,.37-.72,2.14-1.91,4.26-2.05,6.44-.18,2.75,.84,5.57,.73,8.34-.17,4.1-1.38,8.2-1.2,12.25,.12,2.72-.09,4.27-2.68,5.44-1.05,.48-1.65,1.97-2.92,3.6,2.47,.16,3.85,.25,5.59,.36-4.04,5.47-7.74,10.48-11.43,15.49-.44-.33-.87-.65-1.31-.98,.37-.64,.74-1.27,1.09-1.91,1.75-3.14,5.64-7.1,4.82-9.28-1.97-5.23,.35-7.87,3.83-10.97-1.27-1.64-2.38-3.07-4.02-5.17-5.06,25.01-17.36,38.91-44.24,32.27-.46-.87-1.17-2.23-1.85-3.53-1.32,1.16-2.35,2.07-3.38,2.97-.12-1.23-.25-2.46-.39-3.94-.81,.17-1.84,.38-3.11,.65,.32-1.31,.58-2.37,.86-3.55-1.12,.27-2.01,.47-4.19,.99,2.15-2.56,3.4-4.04,4.65-5.52-.18-.21-.36-.42-.54-.63-1.95,.98-3.89,1.96-6.24,3.14-.59-1.11-1.28-2.41-2.35-4.45,2.28,.18,3.63,.59,4.77,.27,.74-.21,1.75-2.14,1.67-2.21-1.55-1.39-3.14-2.79-4.93-3.82-1.54-.88-3.36-1.28-5.25-1.96,1.88-2.57,3.19-4.36,5.08-6.95-1.81,.23-2.27,.28-2.72,.35-1.36,.2-2.73,.41-4.09,.62,.35-1.47,.44-3.08,1.11-4.38,.72-1.4,1.99-2.52,3.35-4.17-1.51-.48-2.4-.77-3.54-1.13,.94-.99,1.57-1.67,2.16-2.29-1.07-.6-2.86-1.21-2.82-1.64,.12-1.2,1-2.33,1.7-3.73-2.3,.27-4.08,.47-6.68,.77,1.3,9.75,2.57,19.3,3.79,28.45-1.73,.51-3.67,1.07-5.27,1.54-6.39-6.13-13.91,1.49-19.04-1.86Zm-71.74-59.39v-1.54s72.53,0,72.53,0v1.54s-72.53,0-72.53,0Zm1.34,6.21l51.47,2.39c-.04,.21-.08,.43-.11,.64h-51.46c.04-1.01,.07-2.02,.11-3.03Zm.9,15.9c.01-.14,.03-.28,.04-.43h53.35c-.01,.74-.02,1.48-.04,2.22-17.79-.6-35.57-1.19-53.36-1.79Zm19.74,13.16c2.16,.28,4.13,.46,6.07,.79,2.33,.4,2.98,2.1,1.8,4.97-2.57-1.74-5.11-3.45-7.63-5.2-.2-.14-.23-.53-.25-.56Zm-126.25,25.32c2.46-8.43,5.48-16.39,6.92-24.64,.87-4.96,1.24-7.82,7.01-5.46,.95,.39,2.28-.08,3.42-.23,6.54-.86,13.07-2.29,19.63-2.5,14.31-.46,28.64-.33,42.96-.41,7.27-.04,14.53,0,21.78,0,3.36,13.04,8.69,24.22,19.31,32.37-.33,.37-.65,.74-.98,1.11-8.6-.9-17.2-1.8-25.81-2.7-2.92-.56-6.46,.38-9.05-.78-4.27-1.91-7.52-1.49-10.87,1.35-.55,.47-1.39,.88-2.08,.85-6.43-.3-12.86-.7-19.29-1.08-8.8-.51-17.67,2.84-26.47-.74-1.9-.77-4.41-.3-6.6-.02-3.57,.46-8.25,2.95-10.42,1.51-4.33-2.88-6.72-.81-9.48,1.37Zm-22.09-16.55c-1.88-2.26,0-3.9,3.92-5.43-1.77,10.24-7.98,16.23-14.44,22.05-.46-.34-.93-.68-1.39-1.03,3.79-4.97,7.59-9.93,11.91-15.59Zm-13.64-.21c2.68-9.06,5.34-18.05,8.01-27.04,.35,.09,.7,.18,1.05,.27-.9,6.38-1.79,12.77-2.76,19.64,1.11-.93,1.91-1.61,3.85-3.23-1.38,3.68-2.22,5.94-3.2,8.56-4.52-5.8-4.97,.7-6.95,1.8Zm-26.95-11.8c3.37-.42,6.26-.77,9.16-1.13,.41,.48,.82,.95,1.23,1.43-2.58,1.83-5.16,3.65-7.92,5.61-.98-2.34-1.7-4.07-2.47-5.91Zm10.45-24.25c5.36,4.35,7.64,4.37,12.45-.77,1.23-1.31,2.59-2.5,4.72-4.54v4.81c-2.9,1.62-5.28,2.95-7.67,4.28,.22,.54,.43,1.08,.65,1.62,2.35,.32,4.7,.65,8.04,1.11-2.81,3.02,.23,8.13-5.32,9.74-.54-2.16-.97-3.86-1.42-5.63,.99-.68,1.96-1.36,3.21-2.22-4.92-4.25-7.07,2.57-10.89,1.72,1.96,4.92,2.17,4.24,7.03,5.77,3.33,1.05,5.97,4.31,8.92,6.58-.43,.63-.86,1.25-1.29,1.88-2.76-1.72-5.51-3.44-9.2-5.74-1.51,7.49-2.96,14.66-4.63,22.91-.48-2.05-1.49-3.83-1.09-5.2,1.26-4.31,1.85-8.28-2.44-12,6.13,1.64,5.33-2.9,6.18-5.04-2.61-2.61-4.89-4.89-7.37-7.37-3.64,1.09-8.27,2.47-13.73,4.11,.54-3.51,.97-6.33,1.33-8.68,1.33,1.22,2.79,3.53,3.85,3.35,3.4-.56,6.65-2.04,11.49-3.68-4.53-4.06-8.19-7.34-11.85-10.62,.2-.38,.4-.75,.6-1.13,2.83,1.56,5.97,2.74,8.43,4.74Zm4.65-37.44c.26-.47,2.65,.44,4.04,.39,2.31-.09,4.87-1.19,6.86-.5,2.79,.97,5.15,3.18,7.55,4.76-1.1,1.84-1.78,3-2.97,4.99,2.91-1.03,4.79-1.69,6.66-2.36-2.95,3.29-4.83,5.33-.04,8.7,2.74,1.93,4.33,5.64,6.05,8.76,.65,1.18-.09,3.05,.33,4.45,.56,1.86,1.64,3.57,2.9,6.16,5.47,1.29-1.81,5.12,.38,8.29,1.49-1.4,2.86-2.69,4.24-3.98,.03,1.5-.71,2.49-1.1,3.6-1.31,3.74-2.67,7.48-3.67,11.31-.4,1.52,.11,3.28,.2,4.93-.55,.1-1.09,.21-1.64,.31,.69,1.26,1.37,2.51,2.12,3.87-2.23,1.7-3.5,5.82-5.67,3.55-.46-5.71-.98-9.72-1.05-13.74-.05-2.83-3.95-6.27,.45-7.99-.97-2.75-1.83-5.22-2.7-7.69-2.81-7.97-3.72-16.42-9.86-23.42-3.57-4.07-10.1-2.24-11.93-7.87,0,0-.3,.08-.78,.21-.46,1-1.04,2.27-1.63,3.55-.83-.56-1.66-1.11-2.49-1.67,1.19-2.9,2.22-5.89,3.74-8.6Z"/>
    <path d="M256.47,215.27c2.08-1.87,4.13-3.8,6.26-5.61,11.2-9.54,22.19-19.33,33.69-28.49,14.43-11.49,30.94-19.47,47.63-27.12,3.57-1.63,7.31-4.3,9.39-7.52,7.67-11.87,19.74-13.89,32.11-15.54,1.19-.16,2.85,.23,3.71,1.01,4.66,4.26,9.94,2.15,14.99,1.61,13.73-1.46,27.44-3.18,41.17-4.67,5.6-.61,11.24-.78,16.84-1.39,13.57-1.48,27.11-3.26,40.69-4.59,5.12-.5,10.42,.52,15.47-.25,6.2-.95,10.94,1.35,16.13,4.11,5.11,2.73,10.85,5.4,16.48,5.84,14.05,1.1,28.2,.85,42.31,1.32,2.93,.1,4.22-1.11,5.72-3.49,3.2-5.07,7.02-9.76,10.58-14.6,.35,.24,.71,.49,1.06,.73-3.12,5.49-6.24,10.97-10.17,17.88,17.47-1.62,33.88-5.54,49.39,4.01-1.02,.21-1.72,.49-2.42,.48-28.97-.36-57.93-.74-86.9-1.15-5.09-.07-10.17-.42-15.26-.48-15.44-.19-30.88-.5-46.32-.37-8.47,.07-16.94,.78-25.39,1.47-12.26,1.01-24.5,2.21-36.73,3.42-10.05,.99-20.1,1.95-30.12,3.21-11.3,1.42-22.69,2.58-33.82,4.94-11.68,2.47-23.18,5.92-34.56,9.59-4.23,1.36-7.65,5.12-11.84,6.79-18.04,7.18-32.63,19.44-47.44,31.41-7.39,5.97-14.58,12.19-21.87,18.3-.26-.27-.52-.55-.78-.82Zm236.9-84.82c-.06-.51-.11-1.01-.17-1.52-33.05,2.69-66.22,4.24-98.81,11.06,32.99-3.18,65.99-6.36,98.98-9.54Zm22.88-4.73c-.24,.56-.48,1.13-.73,1.69,3.63,1.66,7.27,3.31,10.9,4.97,.37-.86,.74-1.72,1.1-2.58-3.76-1.36-7.52-2.72-11.28-4.08Z"/>
    <path d="M145.56,282.99c.81-2.63,.92-5.53,1.01-8.33,.03-1.03,.05-2.06,.16-3.01,.42-1.3,.94-2.53,1.57-3.65,.77-.65,1.89-1.06,3.54-1.12,2.44-.09,4.95,.23,7.31-.25,13.45-2.75,26.83-5.89,40.31-8.46,6.44-1.23,13.04-1.69,19.6-2.14,3.83-.26,7.38,2.85,8.27,6.89-6.02-4.74-12.4-3.08-18.75-1.99-15.72,2.7-31.51,5.07-47.14,8.27-3.44,.7-7.2,3.65-9.22,6.64-4.16,6.17-7.24,13.06-10.76,19.66-.13-.06-.26-.12-.4-.18,.71-1.49,1.22-3.09,1.62-4.68,1.05-2.52,2.09-5.05,2.89-7.65Z"/>
    <path d="M152.2,262.09c7.54,3.05,9.7-3.86,14.26-6.93,4.87-3.27,11.11-4.82,16.97-6.24,7.66-1.85,15.58-2.61,23.29-4.3,2.04-.45,3.71-2.58,6.13-4.37-13.58,3.13-26.57,5.61-39.24,9.22-8.16,2.33-16.55,5.14-21.42,12.61Z"/>
    <path d="M615.72,143.6c-5.48-.46-10.96-1-16.45-1.36-12.37-.81-24.74-1.85-37.12-2.11-4.17-.09-8.38,1.92-12.41,3.94,9.43-3.83,18.74-1.62,28.23-.49,10.66,1.27,21.5,1.17,32.26,1.57,1.84,.07,3.69-.37,5.54-.57-.02-.33-.04-.65-.06-.98Z"/>
    <path d="M597.29,447.54c6.4,1.6,12.18-.4,18.07-1.72-6.75-4.49-12.4-1.05-18.07,1.72Z"/>
    <path d="M698.87,142.57c-7.41-.62-13.82-1.15-20.22-1.69-.13,.48-.27,.95-.4,1.43,1.12,.51,2.33,1.58,3.35,1.42,5.39-.82,11.04,4.35,17.27-1.16Z"/>
    <path d="M544.43,444.36c-4.85-.9-8.54-1.59-12.23-2.27,2.52,4.45,7.18,5.11,12.23,2.27Z"/>
    <path d="M141.05,303.19c-4.2,4.71-4.07,9.7-2.19,15.03,.71-4.87,1.4-9.63,2.19-15.03Z"/>
    <path d="M240.72,423.67c5.53,.79,11.06,1.58,16.59,2.37l.18-1.29c-5.53-.79-11.06-1.58-16.58-2.37l-.18,1.29Z"/>
    <path class="cls-1" d="M450.46,233.2c-2.46,12.37-6.01,24.56-7.73,37.01-.74,5.34-3.33,5.53-6.97,6.81-4.88,1.71-10.09,3.56-13.98,6.78-7.28,6.02-9.6,15.06-12.38,23.81-3.33,10.49-7.53,20.71-11.6,31.71,1.03,.73,6.7-2.4,5.38,3.4-1.7-.45-4.22-1.58-4.55-1.12-3.51,4.85-8.5,2.06-12.46,2.1-10.31,.09-20.63-1.21-30.96-1.69-5.81-.27-11.66-.17-17.48,.02-3.1,.11-4.98-.45-5.41-4.04-.41-3.38-1.39-6.72-2.44-9.98-.31-.94-1.75-1.51-2.67-2.26-.19,.29-.38,.58-.57,.87,1.52,4.88,3.04,9.77,4.64,14.94-32.7,.56-64.4,1.11-96.22,1.66-.8-2.94-1.84-5.58-2.21-8.31-1.24-9.31-2.75-18.64-3.18-28-.4-8.57,.05-17.25,.95-25.79,.43-4.07,2.4-7.74,8.29-7.3,4.68,.35,9.51-.86,14.23-1.64,4.5-.74,8.91-2.11,13.42-2.68,5.63-.71,11.39-.5,16.98-1.38,15.82-2.49,31.59-5.34,48.23-8.19-1.46,14.87-2.78,28.23-4.09,41.58,.65,.04,1.31,.08,1.96,.12,.23-4.59,.22-9.2,.74-13.75,.88-7.68,1.84-15.38,3.26-22.97,.74-3.97,5.96-6.93,9.17-6.23,2.72,.59,5.51,.84,8.66,1.29v-5.73c1.91,2.04,3.37,5.03,5.41,5.5,3.8,.89,7.97,.61,11.94,.26,3.86-.34,7.66-1.38,11.45-2.11-.14-1.48-.25-2.62-.35-3.75,.26-.09,.52-.18,.78-.27,1.18,2.05,2.36,4.1,3.82,6.64,2.36-4.78,3.41,.38,5.08-.67,3.55-.81,7.1-1.61,10.99-2.5-.76-1.46-1.33-2.57-1.96-3.77,6.79-.02,11.55-3.21,11.16-7.64-1.28,.33-2.49,.83-3.73,.94-11.32,1.06-22.65,2.02-33.97,3.09-3.83,.36-7.63,1.17-11.47,1.41-6.06,.39-12.14,.49-18.22,.69-1.7,.06-3.39,.07-5.09,.11v-5.14c-1.16,7.17-6.66,6.14-11.77,5.86-.8-.04-1.61-.65-2.38-.58-5.18,.5-11.51-.53-15.24,2.1-5.27,3.71-10.76,3.38-16.17,4.42-11.91,2.28-23.92,3.96-35.89,5.94-8.01,1.33-16,2.75-25.14,4.33,3.84-10.14,7.24-19.32,10.9-28.4,.32-.81,2.73-1.65,3.53-1.24,4.63,2.36,9.73,4.08,12.38,9.32,.84,1.66,3.59,4.01,4.62,3.65,4.69-1.67,9.07-4.18,14.33-6.77-4.33-.79-7.48-1.36-10.63-1.94,1.69-1.35,3.39-1.62,5.1-1.81,8.37-.96,16.75-1.8,25.11-2.86,10.32-1.3,20.6-2.98,30.95-4.12,11.59-1.28,23.24-2,34.83-3.2,14.3-1.49,28.54-3.9,42.87-4.68,16.4-.89,32.14-3.65,47.85-11.82-.76,6.71-1.01,12.43-2.11,17.98Zm-34.72,14.8c-1.5,.29-2.76,1.87-4.13,2.86,1.48,1,3.11,3.02,4.42,2.83,5.84-.81,11.63-2.1,17.35-3.53,3.69-.92,4.98-3.54,3.42-8.27-6.41,.66-13.03,1.35-19.65,2.03,.06,.57,.12,1.15,.17,1.72,4.89-.63,9.78-1.27,14.68-1.9l.28,1.78c-5.52,.79-11.08,1.41-16.55,2.46Z"/>
    <path class="cls-1" d="M740.7,303.99c.57,2.74,1.15,5.48,1.87,8.93-6.02-7.18-13.49-9.01-22.63-5.31,3.47,.19,6.95,.37,10.42,.56-12.47,.75-24.91,.81-37.35,.69-1.86-.02-3.69-1.12-5.56-1.22-3.76-.2-7.56-.31-11.3,.05-2.2,.21-4.29,1.99-6.46,2.04-10.99,.25-22.01-.1-32.99,.28-7.08,.24-14.36,1.05-19.74,6.44-5.02,5.03-9.71,10.4-14.28,15.84-2.09,2.48-4.2,3.73-7.57,3.75-7.77,.05-15.56,.33-23.31,.97-13.78,1.13-27.54,2.58-41.3,3.93-3.63,.36-6.14-.38-5.73-4.25,3.43,.44,6.57,1.3,9.65,1.15,17.7-.85,35.39-1.92,53.08-2.98,5.91-.35,10.39-2.85,14.04-7.88,5.6-7.72,11.3-15.75,22.05-17.01,.97-.11,1.91-.52,2.86-.79-5.46-1.7-10.41-1.59-14.57,2.68-6.4,6.57-13.31,12.1-23.45,10.07-.8-.16-1.68,.09-2.49-.05-7.13-1.23-12.14,1.84-15.97,7.61-.75,1.14-2.2,1.82-3.32,2.71,4.76-9.74,7.21-11.21,17.01-11.22,1,0,2,.04,3-.01,10.02-.47,14.94-3.93,16.74-11.92,.19-.86-.38-1.9-.61-2.85-.44-.08-.88-.17-1.32-.25-.97,1.77-1.9,3.56-2.93,5.3-1.13,1.91-1.96,4.44-3.66,5.4-.98,.55-3.41-1.48-5.25-2.37,.45,4.1-2.55,3.86-5.28,3.68-8.74-.59-16.44,.25-20.68,9.87-.87,1.98-4.35,5.68-8.68,3.86,2.15-1.8,4.32-3.04,5.59-4.89,.76-1.11,.69-3.53-.04-4.73-1.02-1.67-2.36-1.32-4.22,.23-2.6,2.18-6.14,3.23-8.41,4.35-1.02-5.6-1.95-10.67-3.14-17.19-3.26,6.06-12.16,8.56-5.38,15.57-1.82,3.3-3.37,6.11-4.92,8.92-.49-.12-.99-.24-1.48-.36,.75-3.63,1.51-7.25,2.22-10.67-2.31,.15-4.35,.28-6.02,.39,.32,3.87,.64,7.67,.89,10.79-2.64-.73-5.11-1.41-7.57-2.09-.44,.56-.75,.36-.86,.08-4.4-11.04-8.96-22.03-13.09-33.18-1.79-4.83-7.22-8.98-3.12-14.8h-5.24c1.72-2.19,2.86-3.63,4.42-5.6-2.99,.24-6.11,1.39-7.01,.43-7.85-8.31-17.83-6.41-27.39-6.12-8.14,.25-16.27,1.09-24.73,1.7,0-4.32-.56-8.56,.1-12.59,2.38-14.51,5.14-28.96,7.86-43.41,.18-.94,1.1-2.17,1.95-2.47,4.19-1.49,8.42-3.01,12.75-3.98,15.78-3.54,31.59-6.96,47.43-10.24,9.67-2,12.65-7.61,8.82-16.67-2.6-6.16-4.39-12.69-7.3-18.69-4.97-10.28-3.14-13.08-17.44-12.6-12.77,.43-25.55,.62-38.32,1.06-3.49,.12-6.96,.74-10.57,1.15,.24-4.49,2.29-5.4,5.67-5.25,5.49,.24,11.02-.25,16.49,.13,13.82,.94,27.93-2.71,41.48,2.6,.57,.22,1.31-.02,1.97-.04,6.32-.2,12.69,0,18.95-.73,5.52-.64,7.57,3.06,9.09,6.65,6.23,14.66,12.07,29.5,17.97,44.3,1.25,3.14,2.17,6.42,3.33,9.88-6.63,.47-12.73,.79-18.81,1.37-2.91,.28-5.91,.67-8.62,1.68-5.2,1.94-7.26,7.18-6.04,13.03,.28,1.32-.54,3.25-1.48,4.36-5.25,6.23-10.77,12.22-16.05,18.43-4.02,4.72-7.81,9.64-11.84,14.63,2.56,.89,4.4,1.54,6.67,2.33-1.08-1.62-1.93-2.92-2.84-4.29,2.51-2.64,4.78-5.04,6.67-7.02,2.6,.93,4.85,1.74,7.1,2.55,.68-2.15,1.37-4.3,2.24-7.04,3.73-.03,7.74-1.12,8.81-6.47,.13-.63,1.02-1.26,1.69-1.62,5.39-2.88,14.37-1.52,18.86,2.51,2.14,1.92,4.7,3.37,7.52,5.35-3.98,12.54-13.6,22.52-19.22,34.71,5.28-5.92,10.29-12.05,13.96-18.91,5.06-9.47,7.56-11.6,16.02-10.19,5.58,.93,11.15,1.89,17,2.88,0,2.06,0,4.61,0,7.53-2.5,.44-5.49,.97-8.48,1.5,.02,.5,.04,.99,.05,1.49,3.21,0,6.43-.2,9.62,.07,2.15,.18,4.76,.39,6.29,1.65,7.48,6.19,12.89,13.59,13.03,23.95,.08,5.56,1.75,7.01,7.43,6.81,11.78-.4,23.55-1.37,35.33-1.52,25.95-.33,51.91-.36,77.86-.37,4.1,0,8.21,.76,12.31,1.16,0,0-.17-.15-.18-.16Zm-270.77-75.82c-4.48,.74-6.26,4.21-7.21,7.83-1.19,4.57-1.31,9.41-2.4,14.01-.64,2.71,.02,4.06,2.58,3.83,6.88-.63,13.78-1.32,20.56-2.57,1.56-.29,3.34-2.71,3.91-4.51,1.67-5.27,3.11-10.67,4.02-16.12,.97-5.82-3.75-4.4-7.92-4.92-3.9,.71-8.71,1.65-13.54,2.45Z"/>
    <path class="cls-1" d="M228.28,408.92c2.76-2.18,5.15-4.25,9.48-1.37,2.17,1.44,6.84-1.05,10.42-1.51,2.18-.28,4.7-.75,6.6,.02,8.8,3.58,17.67,.23,26.47,.74,6.43,.37,12.86,.78,19.29,1.08,.68,.03,1.53-.38,2.08-.85,3.36-2.85,6.6-3.26,10.87-1.35,2.59,1.16,6.13,.21,9.05,.78,8.6,.9,17.2,1.8,25.81,2.7,.33-.37,.65-.74,.98-1.11-10.62-8.15-15.95-19.33-19.31-32.37-7.24,0-14.51-.03-21.78,0-14.32,.08-28.65-.06-42.96,.41-6.56,.21-13.09,1.64-19.63,2.5-1.14,.15-2.47,.62-3.42,.23-5.77-2.35-6.14,.51-7.01,5.46-1.45,8.24-4.47,16.21-6.92,24.64Z"/>
    <path class="cls-1" d="M505.33,367.82c-.72,2.14-1.91,4.26-2.05,6.44-.18,2.75,.84,5.57,.73,8.34-.17,4.1-1.38,8.2-1.2,12.25,.12,2.72-.09,4.27-2.68,5.44-1.05,.48-1.65,1.97-2.92,3.6,2.47,.16,3.85,.25,5.59,.36-4.04,5.47-7.74,10.48-11.43,15.49-.44-.33-.87-.65-1.31-.98,.37-.64,.74-1.27,1.09-1.91,1.75-3.14,5.64-7.1,4.82-9.28-1.97-5.23,.35-7.87,3.83-10.97-1.27-1.64-2.38-3.07-4.02-5.17-5.06,25.01-17.36,38.91-44.24,32.27-.46-.87-1.17-2.23-1.85-3.53-1.32,1.16-2.35,2.07-3.38,2.97-.12-1.23-.25-2.46-.39-3.94-.81,.17-1.84,.38-3.11,.65,.32-1.31,.58-2.37,.86-3.55-1.12,.27-2,.47-4.19,.99,2.15-2.56,3.4-4.04,4.65-5.52-.18-.21-.36-.42-.54-.63-1.95,.98-3.89,1.96-6.24,3.14-.59-1.11-1.28-2.41-2.35-4.45,2.28,.18,3.63,.59,4.77,.27,.74-.21,1.75-2.14,1.67-2.21-1.55-1.39-3.14-2.79-4.93-3.82-1.54-.88-3.36-1.28-5.25-1.96,1.88-2.57,3.19-4.36,5.08-6.95-1.81,.23-2.27,.28-2.72,.35-1.36,.2-2.73,.41-4.09,.62,.35-1.47,.44-3.08,1.11-4.38,.72-1.4,1.99-2.52,3.35-4.17-1.51-.48-2.4-.77-3.54-1.13,.94-.99,1.57-1.67,2.16-2.29-1.07-.6-2.86-1.21-2.82-1.64,.12-1.2,1-2.33,1.7-3.73-2.3,.27-4.08,.47-6.68,.77,1.3,9.75,2.57,19.3,3.79,28.45-1.73,.51-3.67,1.07-5.27,1.54-6.39-6.13-13.91,1.49-19.04-1.86,3.14-6.08,7.51-12.27,9.48-19.15,1.27-4.43,1.53-8.49,4.74-12.56,2.76-3.5,3.11-9.1,3.96-13.87,2.09-11.67,3.8-23.18,12.24-32.71,7.72-8.71,16.72-14.46,28.08-16.27,3.35-.53,8.26-1.16,10.05,.65,2.88,2.9,5.97,1.58,8.73,2.71,.87,.35,1.91,.81,2.38,1.53,1.91,2.99,3.63,6.1,5.54,9.37,1.82-1.61,2.79-2.47,4.42-3.92-3.15,7.82-2.09,9.79,4.49,9.92,.14,1.78,.28,3.55,.5,6.49,1.84-1.65,2.87-2.58,4.17-3.76v8.53c-1.08,.09-2.24,.18-3.51,.28,.99,2.63,1.83,4.85,2.8,7.44,1.59-3.59,3.04-6.84,4.48-10.09,.34,.11,.69,.21,1.03,.32-.75,3.88-1.5,7.76-2.25,11.64,.74,.5,1.49,1.01,2.23,1.51,.53-1.95,1.06-3.91,1.58-5.86,.74,.6,1.49,1.2,2.23,1.81-2.02,3.87-4.05,7.74-6.07,11.61,.47,.39,.93,.78,1.4,1.17,1.6-1.56,3.21-3.11,4.81-4.67,.22,.16,.43,.32,.65,.48-.66,2.31-1.33,4.61-1.99,6.92,.29,.13,.58,.25,.87,.38,1.5-1.7,3-3.41,4.49-5.11,.29,.19,.59,.38,.88,.57-1.95,4.48-3.89,8.96-6,13.81-1.32-3.34-2.53-6.39-3.74-9.44-.54,.12-1.09,.24-1.63,.37Zm-25.68,42.17c-1.8-3.56-3.62-7.12-5.37-10.71-.41-.84-.54-1.81-.82-2.81,1.79,.27,3.39,.51,4.99,.74,.26-.41,.53-.82,.79-1.23,1.33,2.35,2.66,4.69,4.18,7.37,5.57-4.83,9.22-10.82,9.72-18.66,.07-1.04,1.49-2,2.65-3.46-.57-2.45-1.36-5.88-2.15-9.31l-.12,.1c2.82-1.75,5.13-3.73,2.84-7.78,6.34-1.68,3.08-3.96,1.3-7.21-2.8-5.13-3.81-11.25-6.73-16.28-2.64-4.54-6.25-8.99-10.48-12-3.81-2.71-9.24-3.02-13.59-5.13-3.84-1.86-7.3-3.1-11.19-.64-5.12,3.24-10.42,6.25-15.27,9.86-1.66,1.23-2.19,3.98-3.66,5.86-.18,2.54,2.01,5.96-3.49,6.4-.74,.06-1.19,3.76-1.76,5.73-1.09,1.9-2.91,3.78-3.24,5.9-.67,4.25-.46,8.64-.75,12.96-.16,2.4-.61,4.78-.06,7.86,.91-1.39,1.83-2.79,3.01-4.59,1.02,2.09,2.24,4.12,3.04,6.31,.92,2.5,1.13,5.31,2.26,7.69,3.45,7.25,7.45,14.25,10.75,21.56,6.27,13.88,23.81,14.08,33.29,6.21,4.09-3.39,6.88-8.34,10.26-12.59-.52-.38-1.03-.76-1.55-1.15-.87,1.23-1.58,2.64-2.66,3.65-1.99,1.86-4.19,3.47-6.31,5.19l.11,.13Z"/>
    <path class="cls-1" d="M367.74,169.96c-23.18-6.63-83.69,25.62-91.26,48.24,5.85,3.37,11.11,8.64,18.99,5.42,.15-.06,.4-.23,.44-.19,4.09,3.87,8.91,4.1,13.99,1.71-.1-3.15,4.59-4.94,9.39-2.45,1.94,1.01,3.88,2.04,5.81,3.06,.23-.44,.46-.89,.69-1.33-3.42-1.95-6.84-3.9-10.52-5.99,5.65-.44,11.18-.86,15.44-1.19,1.1-1.99,2.03-4.28,2.37-4.19,4.81,1.2,5.01-2.94,7.13-5.28-1.45-1.23-2.54-2.15-3.83-3.25,5.42-1.61,10.88-2.49,15.56-4.88,3.64-1.86,6.96-5.19,9.21-8.66,1.62-2.5,1.17-6.31,1.81-9.51,.28-1.4,.95-2.73,1.51-4.06,1.04-2.46,2.14-4.9,3.26-7.45Z"/>
    <path class="cls-1" d="M522.9,413.86h17.92c3.33,2.46,9.41,1.72,13.27-3.25-.2,1.68-.36,3.04-.58,4.86,11.55-1.31,22.71-4.4,34.62-.63,.23,.44,.87,1.71,1.84,3.6,.68-1.34,1.11-2.16,1.62-3.17,1.52,3.05,2.65,6.22,5.42,.98,.66-1.25,3.89-2.51,4.94-1.94,5.67,3.09,11.93,1.15,17.72,2.66,.85,.22,1.87-.17,3.67-.37-1.12-1.68-1.76-2.93-2.66-3.95-3.68-4.16-7.51-8.19-11.1-12.42-.74-.87-.7-2.42-1-3.65-.78-3.18-1.28-6.47-2.4-9.52-1.52-4.13-5.65-2.26-8.55-3.3-9.19-3.29-18.44-2.75-27.23,.34-12.35,4.33-24.75,6.76-37.84,5.77-4.38-.33-5.64,3.9-5.71,6.7-.16,5.89-1.16,11.29-4.18,16.35-.22,.36,.3,1.16,.23,.94Z"/>
    <path class="cls-1" d="M672.87,291.7c.33-.27,1.21-1.62,2.14-1.66,11.08-.38,22.16-.6,33.25-.74,.95-.01,1.91,.83,3.79,1.71-2.48,1.04-4.01,1.68-6.45,2.7,1.38,1.23,2.24,2.64,3.28,2.8,2.71,.4,5.53,.47,8.26,.17,.82-.09,1.45-1.81,2.17-2.79-.98-.65-1.94-1.74-2.96-1.81-.98-.07-2.04,.93-3.06,1.45,.78-5,3.93-5.48,12.5-1.75,1.26-1.54,2.56-3.13,4.83-5.9-6.68-.41-12.19-.82-17.72-1.06-4.45-.19-8.16-3.87-8.02-8.57,4.46-.01,6.74,2.27,7.26,7.71,2.09-4.37,3.61-5.68,6.93-1.95,2.95,3.32,10.77-.43,11.62-5.49,.56-3.32,.11-6.81,.11-10.77-2.54,.64-4.07,1.03-5.63,1.42-1.29-2.25-2.48-4.34-4.01-7.02-2.16,1.9-4.06,3.55-6.2,5.43-.78-1.25-1.41-2.24-2.32-3.7-.57,1.69-.97,2.89-1.38,4.11-1.57-3.08-2.9-4.64-6.47-1.45-3.22,2.87-7.25,5.01-12.23,4.33-4.07-.55-8.26-.12-12.38-.43-1.54-.12-3.02-1.1-4.52-1.68l.39-1.28h3.14c.01-.34,.02-.67,.03-1.01h-7.17c1.5,2.72,2.47,6.64,4.97,8.44,2.43,1.75,6.42,1.33,9.73,1.86-4.29,2.99-10.73,1.77-13.26-2.36-.91-1.49-2.27-2.71-3.46-4.02-1.07-1.19-2.18-2.34-2.56-2.75-1.31,1.65-2.71,3.41-4.12,5.18-1.71-1.88-3.42-3.77-5.13-5.65,.22-.15,.44-.3,.66-.45-1.88-.68-3.76-1.36-6.6-2.39-.58,2.92-1.58,5.9-1.66,8.91-.11,4.49-2.26,7.51-6.25,8.43-4.7,1.08-7.63-2.11-9.74-5.95-.38-.69-.49-1.53-.74-2.33h-9.45c-1.58-4.54-2.31-10.52-8.87-11.42-4.39-.6-8.17,.71-9.57,6.25,1.46-.92,2.6-1.64,3.77-2.37,1.04,2.26,2.08,4.52,3.43,7.47,5.78-.27,4.1,5,4.52,9.42,1.77,.14,3.51,.27,5.47,.42,.13,.54,.49,2.02,.85,3.5,.45,.1,.9,.2,1.35,.29,1.07-1.89,2.14-3.77,3.56-6.28,.34,1.97,.57,3.34,.83,4.86,5.28,1.49,10.19,1.36,15.83,.08,4.69-1.07,10.69-3.96,16.83,1.07-8.55,.74-16.01,1.52-23.49,2.01-8.3,.54-16.63,.72-24.92,1.3-1.2,.08-2.29,1.58-3.43,2.42,1.39,.46,2.79,1.33,4.17,1.29,3.16-.1,6.31-.65,9.46-1.02l.5,1.51c-1.32,.94-2.64,1.88-3.95,2.82,.08,.29,.16,.59,.24,.88,1.78-.52,4.86-.68,5.12-1.62,1.96-7.1,7.67-3.43,11.42-3.85,7.02-.79,14.2-.38,21.31-.13,4.65,.16,9.28,.9,14.02,1.39Z"/>
    <path class="cls-1" d="M436.81,162.14c-10.82,.89-21.56,1.76-32.29,2.68-7.44,.63-14.91,1.09-22.29,2.15-2.03,.29-4.69,2.06-5.5,3.86-2.65,5.82-4.86,11.9-6.64,18.05-.65,2.24,.36,4.97,.69,8.23,1.75-1.35,2.83-2.18,4.08-3.14,.71,.83,1.4,1.64,2.37,2.78,2.6-3.77,5.28-7.93,8.14-.47,3.2-.86,6.18-1.67,9.56-2.58,1.6,2,3.55,4.43,5.07,6.34h-14.68c2.72,2.94,4.79,5.17,7.49,8.09,1.35-2.29,2.43-4.1,3.75-6.35,4.29,6.86,11.87,4.59,19.47,4.55,.9-1.5,2.31-3.83,3.77-6.26-2.94-.49-5.7-.29-7.63-1.45-1.77-1.07-2.64-3.61-4.75-6.76-.79,2.98-1.13,4.29-1.72,6.53-2.56-1.96-4.77-3.65-6.97-5.34,.11-.44,.23-.87,.34-1.31,5.08-.54,10.16-1.14,15.25-1.6,4.85-.44,9.74-.54,14.55-1.27,1.3-.2,3.02-1.97,3.38-3.33,1.95-7.31,3.54-14.72,5.19-22.11,.08-.36-.4-.84-.63-1.28Z"/>
    <path class="cls-1" d="M452.73,163.08c-.45,7.02-.91,14.08-1.37,21.29,7.62,2.18,15.71-5.41,22.45,2.1-.26-.67-.53-1.35-.59-1.51,1.79-.67,3.54-1.41,5.33-1.97,2.48-.77,4.96-1.75,7.5-2.02,3.22-.34,5.67-.51,8.52-3.32,2.49-2.46,7.91-2.07,12.07-2.69,2.09-.31,4.27-.05,7.32-.05-1.71-3.89-2.88-7.29-4.68-10.32-.78-1.31-2.82-2.66-4.3-2.66-16.72-.02-33.45,.2-50.17,.4-.62,0-1.24,.43-2.1,.75Z"/>
    <path class="cls-1" d="M657.66,197.99c-.87,.12-2.09,.67-2.56,.29-3.54-2.88-6.93-5.93-11.42-9.86,2.33,3.42,3.89,5.7,5.77,8.46-5.69-4.22-10.89-8.09-16.09-11.95l-.52,.72c.84,1.26,1.68,2.52,2.51,3.78-.19,.17-.37,.35-.56,.52-1.52-1.1-3.03-2.2-4.45-3.24-6.35,3.24-1.06,6.63,.36,10.78-4.39-2.91-7.74-5.13-11.08-7.34,.29-.43,.58-.87,.86-1.3,1.25,.25,2.51,.49,4.59,.9-4.41-6.77-8.46-12.08-16.66-12.71-2.78-.21-5.38-2.9-8.06-4.45,.31-.49,.63-.99,.94-1.48,1.47,.89,2.93,1.77,4.74,2.86,3.54-8.18,8.51-2.35,13.22-1.71-1.74-1.7-3.71-2.79-5.52-4.1-1.77-1.27-3.38-2.74-5.96-4.86,6.79,1.2,11.99,2.13,17.2,3.05,1.64,.73,2.68,2.98,4.06,5,1.35,1.97,3.04,3.69,4.83,5.82-1.18-4.75-2.18-8.78-3.18-12.8,.4-.2,.81-.4,1.21-.59,3.12,3.4,6.24,6.79,9.9,10.78,.53-2.21,.82-3.4,1.1-4.58,1.35,.2,2.57,.37,4.38,.64-.43-2.17-.76-3.82-1.09-5.46,.37-.25,.75-.5,1.12-.75,5.28,6.81,10.56,13.63,15.84,20.44-.34,.59-.69,1.17-1.03,1.76-3.99-4.42-8.34-4.38-13.89-1.55,3.14,4.34,6.19,8.54,9.23,12.73l.22,.21Zm-33.14-22.21c-1.55,1.09-2.81,1.99-5.3,3.74,3.87,1.52,6.72,2.65,9.58,3.78l.95-1.54c-1.66-1.9-3.32-3.79-5.23-5.98Z"/>
    <path class="cls-1" d="M705.15,259.83c.41-3.71,.97-6,.84-8.26-.38-6.55-3.86-9.51-10.66-9.73-3.81-.12-7.67-1.13-11.42-.77-7.61,.73-15.16,1.66-23.25-.41,.75,5.17-2.64,9.5-.04,14.03,.62,1.08,1.52,3.02,2.09,2.95,6.23-.78,13.2,3.21,18.73-2.79,.55-.59,2.37-.28,3.51-.01,6.65,1.58,13.26,3.26,20.19,4.99Z"/>
    <path class="cls-1" d="M206.34,364.17c-4.4,1.71-.5,5.15-.45,7.99,.07,4.02,.58,8.03,1.05,13.75,2.17,2.27,3.44-1.85,5.67-3.55-.74-1.36-1.43-2.62-2.12-3.87,.55-.1,1.09-.21,1.64-.31-.09-1.65-.6-3.41-.2-4.93,1-3.83,2.35-7.57,3.67-11.31,.39-1.11,1.13-2.1,1.1-3.6-1.37,1.29-2.75,2.58-4.24,3.98-2.19-3.16,5.09-7-.38-8.29-1.25-2.58-2.33-4.29-2.9-6.16-.42-1.4,.31-3.27-.33-4.45-1.72-3.12-3.31-6.84-6.05-8.76-4.79-3.37-2.91-5.41,.04-8.7-1.88,.66-3.76,1.33-6.66,2.36,1.18-1.99,1.87-3.15,2.97-4.99-2.4-1.59-4.76-3.8-7.55-4.76-1.99-.69-4.55,.41-6.86,.5-1.39,.05-3.78-.85-4.04-.39-1.52,2.71-2.55,5.71-3.74,8.6l2.49,1.67c.59-1.28,1.17-2.55,1.63-3.55,.48-.13,.78-.21,.78-.21,1.83,5.64,8.36,3.8,11.93,7.87,6.14,7,7.05,15.45,9.86,23.42,.87,2.47,1.73,4.93,2.7,7.69Z"/>
    <path class="cls-1" d="M591.45,357.23c3.37-4.13,6.87-8.16,10.09-12.41,3.8-5.01,7.47-10.13,10.98-15.35,6.07-9.02,15.03-10.92,25.06-10.91,14.23,.01,28.51-1.06,42.69-.3,15.93,.85,31.65-2.4,47.52-1.34,2.88,.19,5.75,.49,8.63,.74,.21-.5,.41-1,.62-1.5-1.45-.74-2.9-2.13-4.34-2.12-23.11,.15-46.22,.5-69.33,.77-7.99,.09-15.98,.18-23.97,.12-8.7-.06-17.22,1.02-24.56,5.92-2.56,1.71-4.16,4.98-5.93,7.71-6.04,9.28-11.96,18.63-17.93,27.95,.16,.24,.32,.47,.47,.71Z"/>
    <path class="cls-1" d="M705.36,204.27c-3.25-8.53-19.24-32.36-32.93-35.21,1.16,2.1,2.17,3.92,3.06,5.53-8.91,5.58-11.1-2.79-15.84-6.38,.28,.66,.52,1.34,.84,1.99,.34,.69,.74,1.35,.44,2.84-1.55-1.01-3.1-2.01-4.95-3.21,1.73,7.87,7.27,13.26,19.72,19.84,1.29-1.42,2.48-3.76,3.55-3.71,2.5,.12,5.57,.75,7.24,2.37,1.97,1.92,2.7,5.11,4,7.74,1.47,2.96,2.98,5.89,4.47,8.84,.59-.25,1.17-.49,1.76-.74-.67-2.83-1.33-5.66-2.03-8.65,3.35,3.33,6.5,6.47,9.65,9.61,.34-.29,.68-.58,1.03-.87Z"/>
    <path class="cls-1" d="M633.7,240.63c-12.86,.58-25.19,1.14-37.98,1.72,0,3.36,0,6.71,0,10.56,8.82,0,17.48,.61,25.99-.2,6.59-.63,9.41-6.46,11.99-12.08Z"/>
    <path class="cls-1" d="M163.52,363.45c-.36,2.35-.79,5.17-1.33,8.68,5.46-1.63,10.09-3.02,13.73-4.11,2.48,2.48,4.76,4.76,7.37,7.37-.85,2.14-.05,6.68-6.18,5.04,4.29,3.72,3.7,7.69,2.44,12-.4,1.36,.62,3.15,1.09,5.2,1.67-8.26,3.12-15.42,4.63-22.91,3.69,2.3,6.44,4.02,9.2,5.74,.43-.63,.86-1.25,1.29-1.88-2.95-2.27-5.59-5.53-8.92-6.58-4.86-1.53-5.07-.85-7.03-5.77,3.82,.84,5.97-5.97,10.89-1.72-1.24,.86-2.22,1.54-3.21,2.22,.44,1.76,.87,3.47,1.42,5.63,5.56-1.61,2.51-6.72,5.32-9.74-3.34-.46-5.69-.78-8.04-1.11-.22-.54-.43-1.08-.65-1.62,2.39-1.33,4.77-2.66,7.67-4.28v-4.81c-2.14,2.05-3.5,3.23-4.72,4.54-4.81,5.15-7.09,5.13-12.45,.77-2.47-2-5.6-3.19-8.43-4.74-.2,.38-.4,.75-.6,1.13,3.66,3.28,7.32,6.56,11.85,10.62-4.84,1.64-8.09,3.12-11.49,3.68-1.06,.17-2.52-2.14-3.85-3.35Z"/>
    <path class="cls-1" d="M738,329.81c-5.68-.38-11.78-2.58-16.13,3.31-.35,.48-3.26,.02-3.38-.42-1.38-5.41-5.86-5.45-9.81-5.38-17.77,.31-35.53,.99-53.3,1.43-6.35,.16-12.71,.03-19.07,.03-.28-.54-.56-1.08-.84-1.62,1.05-.58,2.11-1.16,3.16-1.75-.13-.25-.26-.5-.4-.76-1.38,.56-3.45,.73-4.01,1.74-1.71,3.1-4.32,3.84-7.43,3.96-9.39,.36-14.39,6.75-18.81,13.91,3.64-3.04,6.97-6.61,11.01-8.96,3.25-1.89,7.33-3.01,11.11-3.22,12.42-.68,24.86-.8,37.3-1.12,1.62-.04,3.25,0,4.95,0,.18,2.49,.33,4.44,.48,6.61,.64-.22,1.41-.33,1.43-.52,.76-6.88,5.25-7.38,10.97-7.22,7.25,.2,14.55-.38,21.8-.93,6-.46,10.3,.94,11.01,9.18,5.9-4.83,10.97-11.27,19.94-8.26Z"/>
    <path class="cls-1" d="M448.68,162.38c-10.02-1.49-8.03,.15-10.98,10.08-1.62,5.45-1.98,11.27-1.96,17.94,1.43-1.19,2.87-2.38,4.46-3.7,1.07,1.14,2.69,2.85,4.16,4.4,6.25-9.2,3.75-19.15,4.34-28.73Z"/>
    <path class="cls-1" d="M590.86,224.52c-.63-6.64-1.42-7.73-8.15-7.53-13.41,.39-26.82,1.1-40.2,2.08-2.48,.18-4.83,2.25-7.24,3.45,.22,.42,.44,.83,.66,1.25,11.67-.63,23.35-1.16,35.01-1.96,3.71-.26,7.37-1.27,11.05-1.92,4.05-.71,7.6-.36,8.87,4.64Z"/>
    <path class="cls-1" d="M330.13,353.84h-91.4c30.41,2.74,60.9,2.15,91.38,2.05,0-.68,.02-1.36,.02-2.05Z"/>
    <path class="cls-1" d="M329.06,347.3h-94.44c1.52,1.25,2.35,2.5,3.16,2.49,13.25-.18,26.5-.66,39.75-.79,15.49-.15,30.98-.03,46.47-.05,1.71,0,3.43-.15,5.14-.22-.02-.48-.05-.95-.07-1.43Z"/>
    <path class="cls-1" d="M648.97,341.9c-7.96,4.86-17.08,3.57-25.77,4.62-3.1,.38-6.14,1.33-9.2,2.02,1.78-2.25,4.8-3.42,5.55-5.43,1.53-4.13,4.53-5.83,8.15-6.01,7.82-.39,15.67-.12,25.33-.12-1.95,2.43-2.73,4.11-4.05,4.92Zm-28.29,1.05c4.11,1.41,18.75-.36,21.66-2.62-4.92-4.27-13.87-3.19-21.66,2.62Z"/>
    <path class="cls-1" d="M563.35,255.24c9.32-.45,18.4-.75,27.46-1.46,1.49-.12,2.84-2.06,4.26-3.16-.24-.6-.49-1.2-.73-1.8-4.7,0-9.41,0-14.11,0-4.49,.01-8.98,.02-13.47,.07-5.44,.06-5.69,.47-3.4,6.35Z"/>
    <path class="cls-1" d="M631.42,227.87c-.14-3.15-1.62-5.39-5.71-4.98-5.14,.52-10.28,1.37-15.43,1.46-3.22,.06-6.44-1.14-9.69-1.49-1.25-.13-2.58,.53-3.87,.83,1.17,1.39,2.3,3.95,3.51,3.99,10.34,.32,20.69,.18,31.19,.18Z"/>
    <path class="cls-1" d="M514.88,383.71c1.89-2.11,4.07-4.03,5.57-6.38,1.13-1.78,1.39-4.12,1.34-6.77-1.63,1.89-3.26,3.78-4.89,5.68-.47-.22-.95-.43-1.42-.65,.56-1.93,1.12-3.85,1.8-6.2-.85,.42-2.08,.61-2.41,1.26-2.24,4.31-4.28,8.72-6.59,13.51,1.33-.7,2.65-1.39,5.38-2.81-1.23,5.65-2.25,10.35-3.57,16.46,1.88-3.17,3.07-5.17,4.89-8.22,.29,3.85,.49,6.47,.7,9.23,5.64-3.54,5.94-5.39,1.75-10.83,1.96-3.77,8.26-4.48,7.97-10.44-3.06,2.88-5.82,5.49-8.58,8.1-.64-.65-1.28-1.3-1.93-1.95Z"/>
    <path class="cls-1" d="M405.08,346.79c-24.17,0-48.34,0-72.51,0,0,.51,0,1.02-.01,1.54,24.17,0,48.35,0,72.52,0v-1.54Z"/>
    <path class="cls-1" d="M643.18,275.25c7.74-8.06,3.74-18.47,8.29-27.84-3.85,1.29-6.34,2.13-10.19,3.42,.34,3.47,.87,8.15,1.2,12.83,.1,1.36-.39,2.76-1.64,4.19,.69,2.19,1.39,4.38,2.34,7.39Z"/>
    <path class="cls-1" d="M587.6,222.46c-4.86,.63-8.84,1.15-12.87,1.67,1.96,9.25,5.31,12.18,13.21,11.41-.11-2.03-.27-4.08-.32-6.13-.06-1.96-.01-3.92-.01-6.95Z"/>
    <path class="cls-1" d="M333.78,357.57c17.15,0,34.31,0,51.46,0,.04-.21,.08-.43,.11-.64-17.16-.8-34.31-1.6-51.47-2.39-.04,1.01-.07,2.02-.11,3.03Z"/>
    <path class="cls-1" d="M597.94,233.19c12.18,0,24.36,0,36.55,0,0-.48-.02-.96-.03-1.44-12.18,0-24.36,0-36.54,0,0,.48,.01,.96,.02,1.44Z"/>
    <path class="cls-1" d="M192.56,392.16c1.98-1.1,2.43-7.6,6.95-1.8,.98-2.63,1.82-4.88,3.2-8.56-1.94,1.62-2.74,2.3-3.85,3.23,.96-6.87,1.86-13.26,2.76-19.64-.35-.09-.7-.18-1.05-.27-2.66,8.99-5.32,17.98-8.01,27.04Z"/>
    <path class="cls-1" d="M334.79,370.44c17.79,.6,35.57,1.19,53.36,1.79,.01-.74,.02-1.48,.04-2.22-8.92,0-17.84,0-26.76,0s-17.73,0-26.59,0c-.01,.14-.03,.28-.04,.43Z"/>
    <path class="cls-1" d="M210.12,386.93c-3.92,1.54-5.8,3.17-3.92,5.43-4.32,5.66-8.11,10.62-11.91,15.59,.46,.34,.93,.68,1.39,1.03,6.45-5.82,12.67-11.81,14.44-22.05Z"/>
    <path class="cls-1" d="M657.66,197.99h25.49c.07-.52,.14-1.03,.21-1.55-2.36-.52-4.7-1.35-7.07-1.48-4.62-.24-9.28-.35-13.88,.03-1.72,.14-3.32,1.81-4.97,2.78,0,0,.22,.21,.22,.21Z"/>
    <path class="cls-1" d="M363.09,196.88c3.51-9.87,7.01-19.73,10.52-29.6-.53-.19-1.05-.39-1.58-.58-5.79,9.02-6.58,19.91-10.59,29.59,.55,.2,1.1,.39,1.65,.59Z"/>
    <path class="cls-1" d="M445.74,207.76c-2.04-6.29-7.36-4.84-11.95-4.97,2.04,7.6,6.09,9.28,11.95,4.97Z"/>
    <path class="cls-1" d="M382.65,213c-.75-1.47-1.51-2.94-2.27-4.44,1.08-1.53,2.16-3.07,3.24-4.61-.35-.35-.71-.71-1.06-1.06-1.29,1.24-2.59,2.47-4.34,4.14-.22-1.8-.38-3.11-.4-3.29-3.3-.63-6.03-1.15-9.78-1.86,4.9,4.51,9.03,8.32,13.17,12.13,.48-.34,.96-.67,1.44-1.01Z"/>
    <path class="cls-1" d="M624.74,354.51c1.89,2.96,8.81,3.64,11.97,.99,1.47-1.23,2.58-2.88,3.85-4.34l-.67-1.29c-2.5,.84-5.01,1.68-7.13,2.39-1.31-.09-2.67-.54-3.75-.17-1.57,.54-2.93,1.68-4.38,2.57l.11-.14Z"/>
    <path class="cls-1" d="M729.35,229.24c-.3-4.83-1.69-5.28-12.32-3.99,.28,5.22,2.93,6.08,12.32,3.99Z"/>
    <path class="cls-1" d="M616.86,191.65c2.84-9.88-2.95-10.65-10.52-10.95,3.76,3.92,6.91,7.19,10.52,10.95Z"/>
    <path class="cls-1" d="M255.83,235.77c-1.31-2.94,2.28-7.46-3.9-7.39-.23-3.44-.45-6.9-.77-11.73-3.73,7.82-.98,18.69,4.67,19.12Z"/>
    <path class="cls-1" d="M665.31,386.17c-6.43,3.22-8.13,7.44-4.65,10.56,2.46,2.2,4.11,1.21,4.53-1.33,.49-2.94,.12-6.03,.12-9.23Z"/>
    <path class="cls-1" d="M530.12,242.08c4.63-.57,8.3-1.02,13.22-1.63-2.9-2.59-5.2-4.65-7.93-7.09-1.82,3-3.22,5.32-5.29,8.73Z"/>
    <path class="cls-1" d="M580.07,330.66c4.05,0,8.11,.17,12.13-.18,.63-.05,1.04-2.51,2.08-5.23-5.75,1.19-10.09,2.1-14.43,3l.22,2.41Z"/>
    <path class="cls-1" d="M724.08,350.33q6.11,1.23,10.13-6.32c-4.77-1.77-7.03-.36-10.13,6.32Z"/>
    <path class="cls-1" d="M624.63,354.65c.31-1.04,.62-2.09,.95-3.19-7.35-.99-9.02-.14-11.01,6.62,3.95-1.38,7.05-2.46,10.17-3.56,0,0-.1,.13-.1,.13Z"/>
    <path class="cls-1" d="M644.8,401.96c3,0,5.64,.22,8.22-.12,.92-.12,1.67-1.57,2.5-2.41-.86-.81-1.72-2.3-2.58-2.31-3.17,0-7.36-1.58-8.14,4.84Z"/>
    <path class="cls-1" d="M499.86,188.11c.55-1.94,1.1-3.88,1.7-6.01-2.68-1.88-5.21-1.01-10.87,4.44,3.27,.56,6.24,1.07,9.17,1.58Z"/>
    <path class="cls-1" d="M414.28,309.08c-1.9,10.21-3.79,20.43-5.69,30.64,.39,.07,.79,.15,1.18,.22,1.92-10.16,3.85-20.32,5.77-30.47-.42-.13-.84-.26-1.26-.39Z"/>
    <path class="cls-1" d="M738.9,338.6c-4.63-4.15-9.28-2.73-13.57-.63-1.28,.63-1.55,3.32-1.78,5.47,4.05-5.66,9.39-6.17,15.35-4.84Z"/>
    <path class="cls-1" d="M569.66,233.39h-25.97c4.54,3.11,10.31,3.29,25.97,0Z"/>
    <path class="cls-1" d="M174.76,379.22c-2.9,.36-5.79,.72-9.16,1.13,.77,1.84,1.49,3.57,2.47,5.91,2.76-1.95,5.34-3.78,7.92-5.61-.41-.48-.82-.95-1.23-1.43Z"/>
    <path class="cls-1" d="M668.28,350.79h-19.1c.03,.2,.06,.4,.09,.59,6.37,0,12.74,0,19.12,0-.03-.2-.07-.4-.1-.59Z"/>
    <path class="cls-1" d="M616.64,375.77c-5.72,.59-11.45,1.19-17.17,1.78,.07,.59,.13,1.19,.2,1.78,5.73-.52,11.46-1.03,17.19-1.55-.07-.67-.14-1.35-.21-2.02Z"/>
    <path class="cls-1" d="M266.84,220.97c-7.26,2.71-6.93,5.73-1.63,9.99,.56-3.42,1.03-6.31,1.63-9.99Z"/>
    <path class="cls-1" d="M514.57,332.28c3.21,6.52,6.43,13.04,9.64,19.57,.38-.18,.76-.36,1.13-.54-3.15-6.59-6.3-13.17-9.44-19.76-.44,.24-.89,.49-1.33,.73Z"/>
    <path class="cls-1" d="M455.81,198.77c.83-.49,1.92-1.12,2.55-1.49,2.67,1.13,4.99,2.11,7.31,3.08,.27-.53,.54-1.05,.81-1.58-3.84-2.06-7.67-4.12-11.54-6.2,.23,1.59,.51,3.57,.88,6.18Z"/>
    <path class="cls-1" d="M244.1,231.42c-.33-4.49-.62-8.4-.91-12.38-4.02,2.17-3.57,8.15,.91,12.38Z"/>
    <path class="cls-1" d="M575.73,242.29h10.22c-3.32-3.02-6.85-2.23-10.37-1.54,.05,.51,.1,1.03,.15,1.54Z"/>
    <path class="cls-1" d="M690.9,403.38c0-3.52,0-7.03,0-10.55-.76,.04-1.53,.07-2.29,.11,.35,3.53,.71,7.06,1.06,10.58,.41-.05,.82-.09,1.23-.14Z"/>
    <path class="cls-1" d="M282.62,224.47c-3.48-1.63-4.87-2.28-6.6-3.09-.64,3.15-1.16,5.73-1.68,8.3,.55,.56,1.11,1.11,1.66,1.67,1.94-2.01,3.87-4.03,6.62-6.88Z"/>
    <path class="cls-1" d="M710.16,367.03c-1.99,3.62-3.99,7.23-5.98,10.85,.57,.31,1.14,.61,1.71,.92l5.7-10.89c-.47-.3-.95-.59-1.42-.89Z"/>
    <path class="cls-1" d="M696.39,395.8c1.39-2.14,2.22-3.44,2.69-4.16-2.11-1.35-3.86-2.47-5.61-3.58-.35,.06-.7,.12-1.06,.18,1.16,2.2,2.32,4.4,3.98,7.57Z"/>
    <path class="cls-1" d="M354.53,383.6s.04,.42,.25,.56c2.52,1.75,5.06,3.46,7.63,5.2,1.18-2.87,.53-4.57-1.8-4.97-1.94-.33-3.91-.52-6.07-.79Z"/>
    <path class="cls-1" d="M394.39,139.99c32.99-3.18,65.99-6.36,98.98-9.54-.06-.51-.11-1.01-.17-1.52-33.05,2.69-66.22,4.24-98.81,11.06Z"/>
    <path class="cls-1" d="M527.52,129.8c-3.76-1.36-7.52-2.72-11.28-4.08-.24,.56-.48,1.13-.73,1.69,3.63,1.66,7.27,3.31,10.9,4.97,.37-.86,.74-1.72,1.1-2.58Z"/>
    <path d="M432.29,245.54c-5.52,.79-11.08,1.41-16.55,2.46-1.5,.29-2.76,1.87-4.13,2.86,1.48,1,3.11,3.02,4.42,2.83,5.84-.81,11.63-2.1,17.35-3.53,3.69-.92,4.98-3.54,3.42-8.27-6.41,.66-13.03,1.35-19.65,2.03,.06,.57,.12,1.15,.17,1.72,4.89-.63,9.78-1.27,14.68-1.9l.28,1.78Z"/>
    <path d="M491.39,230.65c-.91,5.45-2.35,10.84-4.02,16.12-.57,1.79-2.34,4.22-3.91,4.51-6.78,1.25-13.68,1.94-20.56,2.57-2.56,.23-3.22-1.12-2.58-3.83,1.08-4.6,1.21-9.44,2.4-14.01,.95-3.63,2.73-7.09,7.21-7.83,4.83-.8,9.64-1.74,13.54-2.45,4.16,.52,8.89-.9,7.92,4.92Zm-15.1,1.34c-6.06,.78-10.89,8.03-9.39,14.04,.17,.67,1.36,1.55,2.06,1.53,2.26-.06,4.52-.44,6.77-.8,3.35-.53,5.46-2.19,5.86-5.88,.31-2.88,1.18-5.69,1.88-8.94-2.62,0-4.93-.24-7.18,.05Z"/>
    <path d="M492.39,362.11c-3.61-.39-6.97-.84-10.35-1.11-2.77-.22-4.03-1.25-2.97-4.16,1.67-4.61-.64-6.39-5.64-6.91,.74,5.78,4.06,11.6-.87,17.11-1.35-1.67-2.72-3.37-4.23-5.24-1.39,.77-2.64,1.46-5.14,2.85,1.88-8.51,6.6-15.93,3.5-23.97-.58-.08-1.16-.16-1.74-.24-.65,4.82-1.31,9.64-2.01,14.78-3.97-2.44-7.95-4.88-12.12-7.44,.42,7.15,5.73,9.46,10.78,11.85-.62,4.64-3.44,6.36-7.3,6.14-5.27-.29-7.76-4.06-8.28-11.67-4.58,4.78-4.69,7.1,.29,11.06,3,2.39,6.61,3.99,9.8,6.14,1.31,.88,2.26,2.3,3.47,3.58,2.41-2.78,4.84-5.58,7.82-9.01,1.62,2.24,2.87,3.97,4.69,6.48,1.92-5.55,6.07-6.71,11.17-7.49,6.33-.98,8.55,2.35,10.39,7.07,.79,3.43,1.59,6.86,2.15,9.31-1.16,1.45-2.58,2.41-2.65,3.46-.5,7.85-4.15,13.84-9.72,18.66-1.52-2.68-2.85-5.03-4.18-7.37-.26,.41-.53,.82-.79,1.23-1.6-.24-3.2-.48-4.99-.74,.28,1,.41,1.97,.82,2.81,1.74,3.59,3.57,7.14,5.37,10.71-2.23,.5-5.01,.32-6.58,1.61-7.19,5.93-19.24-.59-22.27-7.68-.51-1.18-2.28-1.83-3.46-2.72,.01,1.49-.54,3.31,.12,4.42,6.25,10.62,19.28,16.22,32.08,4.24,2.12-1.72,4.32-3.34,6.31-5.19,1.08-1.01,1.78-2.42,2.66-3.65,.52,.38,1.03,.76,1.55,1.15-3.38,4.24-6.17,9.2-10.26,12.59-9.48,7.86-27.02,7.66-33.29-6.21-3.3-7.31-7.31-14.31-10.75-21.56-1.13-2.38-1.34-5.18-2.26-7.69-.8-2.19-2.02-4.22-3.04-6.31-1.18,1.81-2.1,3.2-3.01,4.59-.55-3.08-.1-5.46,.06-7.86,.29-4.32,.08-8.71,.75-12.96,.33-2.12,2.15-4,3.24-5.9,.57-1.97,1.02-5.67,1.76-5.73,5.49-.44,3.31-3.86,3.49-6.4,1.47-1.88,2-4.62,3.66-5.86,4.85-3.61,10.14-6.62,15.27-9.86,3.89-2.47,7.35-1.22,11.19,.64,4.36,2.11,9.78,2.42,13.59,5.13,4.23,3.01,7.84,7.46,10.48,12,2.92,5.03,3.93,11.15,6.73,16.28,1.77,3.25,5.04,5.53-1.3,7.21,2.29,4.05-.01,6.03-2.84,7.78-.37-3.25-.74-6.49-1.14-9.93Zm-43.66-19.19c7.36-1.95,11.08-9.33,18.45-8.45,3.13,3.28,6.12,6.7,9.35,9.86,1.77,1.73,3.97,3.03,5.98,4.53,.37-.48,.74-.96,1.12-1.44-5.49-4.3-10.99-8.61-16.48-12.91-7.94-2.22-12.93,2.26-18.41,8.42Zm15,42.12c-1.63-2.39-3.22-4.72-4.9-7.2-.98,2.97-1.87,5.93-2.94,8.84-.99,2.69-2.16,5.32-3.41,8.36-3.42-2.12-5.64-3.48-1.26-6.18,2.16-1.33,3.82-3.46,7.07-6.49-14.42,3.26-10.67-7.06-13.34-13.11v20.54c-.68,.05-1.37,.1-2.05,.14-.35-7.53-6.28-14.34-1.19-22.57-.61-.09-1.23-.19-1.84-.28-.77,3.07-2.34,6.2-2.14,9.21,.31,4.86,1.45,9.74,2.85,14.43,2.16,7.26,9.41,9.17,15.35,4.34,.88-.72,1.65-1.58,3.53-3.41,2.1,5.56,4,10.61,5.91,15.65-.45,.26-.91,.52-1.36,.77-2.83-1.52-5.65-3.04-8.48-4.56-.34,.53-.69,1.06-1.03,1.59,2.12,1.61,4.04,3.67,6.4,4.71,2.29,1.01,4.69,.62,4.56-3.02-.1-2.99-.12-6,.12-8.98,.32-4.02,.65-8.14,6.47-7.96,.8,.02,2.17-1.59,2.38-2.62,.88-4.28,3.44-3.59,6.38-2.61,3.05,1.02,6.17,1.86,9.26,2.78,.23-.65,.47-1.31,.7-1.96-1.79-.84-3.58-1.67-5.37-2.52-3.06-1.45-6.23-2.54-3.42-7.18,1.34-2.21,1.42-5.32-3.04-5.67-.68,7.12-8.79,14.8-15.21,15.01Zm.7-11.45c-.07,2-.07,4.01-.09,6.02,1.96-.96,3.89-1.96,5.87-2.86,1.15-.53,2.36-.91,4.75-1.82-3.81-1.44-6.6-2.49-9.84-3.72-.44,1.47-.67,1.92-.69,2.38Z"/>
    <path d="M629.75,181.77c-1.66-1.9-3.32-3.79-5.23-5.98-1.55,1.09-2.81,1.99-5.3,3.74,3.87,1.52,6.72,2.65,9.58,3.78l.95-1.54Z"/>
    <path d="M642.34,340.32c-4.92-4.27-13.87-3.19-21.66,2.62,4.11,1.41,18.75-.36,21.66-2.62Z"/>
    <path class="cls-1" d="M483.46,231.95c-2.62,0-4.93-.24-7.18,.05-6.06,.78-10.89,8.03-9.39,14.04,.17,.67,1.36,1.55,2.06,1.53,2.26-.06,4.52-.44,6.77-.8,3.35-.53,5.46-2.19,5.86-5.88,.31-2.88,1.18-5.69,1.88-8.94Z"/>
    <path class="cls-1" d="M478.93,370.03c-.68,7.12-8.79,14.8-15.21,15.01-1.63-2.39-3.22-4.72-4.9-7.2-.98,2.97-1.87,5.93-2.94,8.84-.99,2.69-2.16,5.32-3.41,8.36-3.42-2.12-5.64-3.48-1.26-6.18,2.16-1.33,3.82-3.46,7.07-6.49-14.42,3.26-10.67-7.06-13.34-13.11v20.54c-.68,.05-1.37,.1-2.05,.14-.35-7.53-6.28-14.34-1.19-22.57-.61-.09-1.23-.19-1.84-.28-.77,3.07-2.34,6.2-2.14,9.21,.31,4.86,1.45,9.74,2.85,14.43,2.16,7.26,9.41,9.17,15.35,4.34,.88-.72,1.65-1.58,3.53-3.41,2.1,5.56,4,10.61,5.91,15.65-.45,.26-.91,.52-1.36,.77-2.83-1.52-5.65-3.04-8.48-4.56-.34,.53-.69,1.06-1.03,1.59,2.12,1.61,4.04,3.67,6.4,4.71,2.29,1.01,4.69,.62,4.56-3.02-.1-2.99-.12-6,.12-8.98,.32-4.02,.65-8.14,6.47-7.96,.8,.02,2.17-1.59,2.38-2.62,.88-4.28,3.44-3.59,6.38-2.61,3.05,1.02,6.17,1.86,9.26,2.78,.23-.65,.47-1.31,.7-1.96-1.79-.84-3.58-1.67-5.37-2.52-3.06-1.45-6.23-2.54-3.42-7.18,1.34-2.21,1.42-5.32-3.04-5.67Z"/>
    <path class="cls-1" d="M493.52,372.03c-.37-3.25-.74-6.49-1.14-9.93-3.61-.39-6.97-.84-10.35-1.11-2.77-.22-4.03-1.25-2.97-4.16,1.67-4.61-.64-6.39-5.64-6.91,.74,5.78,4.06,11.6-.87,17.11-1.35-1.67-2.72-3.37-4.23-5.24-1.39,.77-2.64,1.46-5.14,2.85,1.88-8.51,6.6-15.93,3.5-23.97-.58-.08-1.16-.16-1.74-.24-.65,4.82-1.31,9.64-2.01,14.78-3.97-2.44-7.95-4.88-12.12-7.44,.42,7.15,5.73,9.46,10.78,11.85-.62,4.64-3.44,6.36-7.3,6.14-5.27-.29-7.76-4.06-8.28-11.67-4.58,4.78-4.69,7.1,.29,11.06,3,2.39,6.61,3.99,9.8,6.14,1.31,.88,2.26,2.3,3.47,3.58,2.41-2.78,4.84-5.58,7.82-9.01,1.62,2.24,2.87,3.97,4.69,6.48,1.92-5.55,6.07-6.71,11.17-7.49,6.33-.98,8.55,2.35,10.39,7.07,0,0-.12,.1-.12,.1Z"/>
    <path class="cls-1" d="M479.65,409.99c-2.23,.5-5.01,.32-6.58,1.61-7.19,5.93-19.24-.59-22.27-7.68-.51-1.18-2.28-1.83-3.46-2.72,.01,1.49-.54,3.31,.12,4.42,6.25,10.62,19.28,16.22,32.08,4.24,0,0,.11,.13,.11,.13Z"/>
    <path class="cls-1" d="M467.21,334.43c3.09,3.31,6.07,6.73,9.3,9.89,1.77,1.73,3.97,3.03,5.98,4.53,.37-.48,.74-.96,1.12-1.44-5.49-4.3-10.99-8.61-16.48-12.91,0,0,.08-.07,.08-.07Z"/>
    <path class="cls-1" d="M465.12,371.21c-.44,1.47-.67,1.92-.69,2.38-.07,2-.07,4.01-.09,6.02,1.96-.96,3.89-1.96,5.87-2.86,1.15-.53,2.36-.91,4.75-1.82-3.81-1.44-6.6-2.49-9.84-3.72Z"/>
    <path class="cls-1" d="M467.13,334.5c-7.94-2.22-12.93,2.26-18.41,8.42,7.36-1.95,11.08-9.33,18.47-8.47,.02-.02-.06,.05-.06,.05Z"/>
  </g>
  <g>
    <path d="M205.93,165.34l-.62,2.9c2.15-1.19,4.11-2.18,5.9-2.97,1.78-.79,3.46-1.48,5.04-2.05,1.58-.58,3-1.03,4.26-1.36,4.47-1.1,7.46-.51,8.96,1.78,.91,1.4,1.05,3.26,.41,5.59-.64,2.33-1.83,4.82-3.58,7.45-1.74,2.64-3.7,5.09-5.88,7.36-2.18,2.27-4.31,4.09-6.41,5.46-3.5,2.29-6.58,3.53-9.25,3.71-2.67,.18-4.63-.67-5.88-2.57-.86-1.32-1.28-3.26-1.25-5.83,.03-2.57,.43-6,1.19-10.3-1.94,1.16-3.43,1.79-4.47,1.91-1.04,.12-1.8-.19-2.27-.9-.29-.45-.36-.88-.22-1.31,.15-.43,.44-.86,.87-1.3,.44-.44,1.32-1.21,2.66-2.3s3.06-2.5,5.16-4.21c.81-4.24,1.78-7.67,2.91-10.28,1.13-2.61,2.78-4.76,4.93-6.45,.17-.14,.37-.28,.58-.43,.22-.14,.36-.17,.42-.07,.08,.12,.02,.6-.17,1.44-.19,.84-.5,2.2-.94,4.06-.44,1.87-.96,4.08-1.55,6.63,4.01-3.32,7.18-6.19,9.52-8.62,2.34-2.43,3.92-4.54,4.75-6.33,.83-1.79,.9-3.22,.2-4.29-.85-1.3-2.21-1.75-4.09-1.35-1.88,.4-4.36,1.61-7.44,3.62-1.7,1.11-3.56,2.54-5.56,4.27-2.01,1.73-3.78,3.36-5.32,4.9-1.54,1.54-2.87,2.97-3.99,4.3-1.12,1.33-1.61,2.09-1.49,2.28,.04,.06,.15,.07,.32,.04,1.36-.39,2.11-.47,2.26-.23,.2,.31-1.13,2.04-4.01,5.18-2.87,3.14-4.91,5.1-6.1,5.89-.85,.56-1.51,.48-1.98-.24-.56-.85-.64-3-.24-6.43,.4-3.43,1.15-5.96,2.27-7.57,.39-.56,1.4-1.71,3.03-3.44,1.63-1.73,3.46-3.57,5.49-5.51,2.03-1.94,4.15-3.84,6.35-5.7,2.2-1.86,4.22-3.39,6.06-4.6,4.35-2.85,8.04-4.33,11.09-4.46,3.04-.12,5.21,.81,6.51,2.78,.88,1.34,1.22,2.96,1.03,4.85-.19,1.9-.98,4.09-2.37,6.58-1.39,2.49-3.51,5.27-6.36,8.32-2.85,3.06-6.43,6.31-10.73,9.77Zm-1.2,6.15c-.41,1.99-.78,3.74-1.11,5.28-.33,1.53-.51,2.71-.54,3.55-.03,.84,.15,1.54,.53,2.12,.61,.93,1.72,1.39,3.34,1.37,1.62-.02,3.49-.73,5.63-2.13,1.98-1.3,3.9-2.97,5.75-5.03,1.86-2.06,3.24-4.07,4.15-6.02,.91-1.95,1.04-3.41,.41-4.38-.55-.83-1.56-1.15-3.04-.96-1.48,.2-3.51,.84-6.08,1.93-2.57,1.09-5.58,2.52-9.03,4.28Z"/>
    <path d="M233.38,155.72c2.14-4.81,4.56-8.84,7.27-12.08,2.71-3.25,5-5.38,6.89-6.41,.51-.28,1.08-.35,1.7-.24,.63,.12,1.2,.34,1.71,.67,.51,.33,.82,.61,.95,.83,.2,.36,.18,.73-.07,1.08-.24,.36-.72,.89-1.43,1.59,.35,.23,.79,.53,1.33,.9,.54,.36,.97,.66,1.29,.9,.32,.24,.54,.48,.68,.72,.27,.49,.18,1.72-.27,3.69s-.73,3.4-.86,4.29c-.13,.89,.06,1.79,.56,2.71,.82,1.51,2.05,1.81,3.69,.92,1.69-.92,3.61-3.7,5.75-8.32l1.02,1.86c-2.99,9.05-5.8,14.29-8.43,15.73-.94,.51-1.75,.62-2.43,.32-.68-.3-1.3-.96-1.85-1.98-.88-1.61-1.46-4.31-1.75-8.12-1.73,5.22-3.07,8.99-4.02,11.32-.95,2.33-1.99,3.8-3.1,4.4-.53,.29-1.41,.26-2.62-.07-1.22-.34-2.47-.96-3.76-1.85-1.29-.89-2.29-2-3.01-3.33-.52-.96-.85-1.81-.98-2.57-.13-.76-.07-1.65,.19-2.66,.26-1.01,.78-2.45,1.56-4.29Zm15.51-12.82c-4.96,5.85-8.31,10.34-10.05,13.48-1.75,3.14-2.13,5.61-1.15,7.4,.35,.65,.78,1.11,1.27,1.38,.49,.27,.97,.28,1.43,.03,.27-.15,.66-.54,1.18-1.2,1.85-2.65,3.27-5.55,4.26-8.72s2.02-7.3,3.06-12.38Z"/>
    <path d="M278.93,138.92l1.11,2.32c-2.41,8.27-5.23,13.19-8.48,14.75-1.76,.85-3.53,.7-5.31-.44-1.78-1.14-3.3-3.02-4.57-5.66-1.02-2.13-1.64-4.95-1.86-8.46-.22-3.51-.05-7.25,.49-11.23,.55-3.98,1.35-7.6,2.42-10.88,1.07-3.27,2.3-5.8,3.71-7.58,.56-.73,1.06-1.2,1.48-1.4,.52-.25,.96-.22,1.32,.08,.36,.3,.76,.93,1.21,1.87,1.39,2.9,1.7,7.15,.93,12.72-.77,5.58-2.6,11.77-5.5,18.58,.27,1.21,.55,2.1,.83,2.69,.64,1.34,1.5,2.26,2.59,2.77,1.08,.51,2.23,.47,3.45-.11,.62-.3,1.19-.82,1.72-1.57,.52-.75,1.04-1.62,1.54-2.61,.5-.99,1.48-2.93,2.92-5.84Zm-13.83-.31c.78-1.68,1.44-3.49,1.99-5.43,.55-1.94,.99-3.93,1.31-5.99,.32-2.06,.49-3.85,.51-5.37,.02-1.52-.13-2.6-.43-3.23-.23-.48-.54-.63-.94-.44-.15,.07-.38,.32-.69,.75-1.01,1.77-1.73,4.63-2.16,8.57-.43,3.94-.29,7.65,.4,11.13Z"/>
    <path d="M295.85,132.04l1.01,2.33c-1.29,3.72-2.7,6.72-4.23,8.99-1.53,2.27-3.04,3.73-4.53,4.38-2.07,.9-4,.66-5.81-.73-1.8-1.39-3.18-3.17-4.12-5.33-.36-.83-.6-1.66-.73-2.51-.13-.84-.16-1.57-.09-2.18,.06-.61,.25-1.6,.55-2.97,1.54-6.26,3.79-10.03,6.77-11.33,1.54-.67,2.52-.5,2.96,.49,.3,.68,.26,1.96-.11,3.84-.37,1.88-.81,3.3-1.32,4.25-1.42,2.74-2.31,4.61-2.67,5.6-.36,.99-.35,1.93,.04,2.83,.33,.77,.95,1.25,1.85,1.47,.9,.21,1.9,.08,2.98-.39,1.18-.52,2.33-1.45,3.44-2.8,1.11-1.35,2.44-3.33,4.01-5.94Zm-8.77-13.13c-.63,.27-1.32,.33-2.06,.18-.74-.16-1.25-.54-1.52-1.16-.41-.94-.33-2.21,.23-3.82,.56-1.61,1.41-2.66,2.54-3.15,.76-.33,1.47-.41,2.15-.23,.68,.17,1.18,.63,1.5,1.38,.4,.91,.32,2.15-.23,3.7-.55,1.56-1.42,2.59-2.61,3.11Z"/>
    <path d="M313.19,104.06c.05,.15,.24,.18,.58,.08,.24-.07,1.27-.53,3.1-1.38,1.83-.85,3.51-1.51,5.06-2.01-1.62,.93-2.99,1.78-4.11,2.57-1.13,.79-2.28,1.64-3.45,2.54s-2.03,1.53-2.56,1.87c-.53,.34-1,.58-1.42,.71-1.34,.41-2.23-.12-2.68-1.58-1.14-3.77-.82-6.76,.98-8.98,.73-.9,1.99-2.09,3.77-3.56,1.78-1.47,3.84-2.98,6.17-4.53,2.33-1.54,4.95-3.06,7.86-4.55,2.91-1.49,5.87-2.69,8.87-3.6,3.08-.93,6.02-1.42,8.83-1.45,2.81-.03,5.29,.38,7.44,1.21,2.15,.84,3.99,2.1,5.53,3.79,1.53,1.69,2.67,3.77,3.42,6.23,1.14,3.75,.96,7.77-.53,12.08-1.49,4.31-3.97,8.45-7.43,12.45-3.46,3.99-7.63,7.59-12.52,10.8-4.89,3.2-9.94,5.6-15.15,7.18-.97,.3-1.77,.44-2.39,.44-.62,0-1.13-.23-1.52-.68-.39-.45-.75-1.18-1.06-2.2-.38-1.26-.58-2.33-.58-3.2,0-.87,.11-1.91,.34-3.12,1.64-8.23,5.53-19.13,11.66-32.72-1.84,.75-3.82,1.72-5.93,2.91-2.11,1.19-4.09,2.39-5.93,3.6-1.84,1.21-3.38,2.31-4.61,3.29-1.23,.98-1.8,1.59-1.73,1.83Zm19.28-12.18s.14,.28,.39,.7c.24,.42,.42,.8,.52,1.13,.16,.51,.06,1.32-.28,2.43-.34,1.11-1.06,3.11-2.16,6.02-1.1,2.9-2.03,5.44-2.78,7.6-.75,2.17-1.58,4.91-2.5,8.24-.28,1.06-.48,1.77-.6,2.14-.12,.38-.3,.99-.54,1.84-.25,.85-.4,1.56-.45,2.14s-.04,.99,.04,1.26c.18,.58,.67,.87,1.49,.87,.82,0,1.93-.2,3.32-.63,3.58-1.09,7.2-2.79,10.87-5.1,3.67-2.31,6.96-4.98,9.88-8,2.92-3.02,5.06-6.08,6.42-9.18,1.36-3.1,1.63-5.99,.81-8.68-.93-3.06-2.97-5.01-6.13-5.86-3.16-.84-7.28-.5-12.36,1.05-2.13,.65-4.11,1.32-5.94,2.02Z"/>
    <path d="M370.01,101.69c3.42-4,6.88-7.18,10.4-9.52,3.52-2.34,6.33-3.74,8.43-4.19,.56-.12,1.13-.03,1.7,.26,.57,.29,1.05,.67,1.44,1.13,.39,.46,.62,.82,.67,1.06,.09,.41-.04,.75-.37,1.02-.34,.27-.94,.65-1.83,1.12,.27,.32,.61,.73,1.02,1.24,.42,.5,.74,.91,.98,1.23,.24,.32,.38,.61,.44,.88,.12,.54-.32,1.7-1.3,3.46-.99,1.76-1.67,3.05-2.04,3.87-.37,.82-.45,1.73-.23,2.75,.36,1.68,1.45,2.32,3.28,1.93,1.88-.4,4.51-2.52,7.88-6.35l.44,2.07c-5.44,7.83-9.62,12.06-12.55,12.68-1.05,.22-1.86,.1-2.42-.39-.57-.48-.97-1.29-1.22-2.42-.38-1.79-.17-4.55,.63-8.28-3.14,4.51-5.5,7.75-7.07,9.71-1.58,1.96-2.98,3.08-4.22,3.34-.59,.13-1.42-.15-2.5-.82-1.07-.67-2.1-1.62-3.08-2.84-.98-1.22-1.63-2.57-1.94-4.04-.23-1.06-.3-1.98-.21-2.75,.09-.77,.4-1.6,.94-2.5,.54-.9,1.44-2.12,2.71-3.68Zm18.52-7.88c-6.41,4.2-10.9,7.55-13.47,10.07-2.57,2.52-3.64,4.77-3.21,6.77,.16,.73,.43,1.29,.83,1.69,.4,.4,.85,.55,1.36,.44,.3-.06,.79-.33,1.47-.81,2.52-2.01,4.71-4.39,6.57-7.15,1.86-2.76,4.01-6.42,6.46-11Z"/>
    <path d="M418.48,98.82l.41,2.5c-2.16,3.29-4.26,5.85-6.3,7.68-2.04,1.83-3.86,2.87-5.46,3.14-2.23,.37-4.04-.34-5.45-2.13-1.41-1.79-2.31-3.85-2.69-6.18-.15-.89-.18-1.76-.1-2.61,.08-.85,.23-1.56,.44-2.13,.21-.57,.63-1.49,1.26-2.74,3.02-5.69,6.13-8.8,9.33-9.32,1.65-.27,2.57,.13,2.75,1.2,.12,.73-.23,1.96-1.04,3.69-.82,1.73-1.59,3-2.32,3.8-2.04,2.31-3.36,3.9-3.96,4.77-.59,.87-.81,1.79-.66,2.75,.14,.82,.62,1.45,1.44,1.88,.82,.43,1.82,.55,2.99,.35,1.27-.21,2.61-.84,4.02-1.88,1.4-1.04,3.18-2.63,5.34-4.77Zm-5.29-14.88c-.68,.11-1.36,0-2.04-.33-.68-.33-1.08-.83-1.19-1.5-.17-1.01,.22-2.22,1.16-3.64,.94-1.42,2.02-2.23,3.24-2.44,.81-.13,1.53-.03,2.14,.3,.61,.33,.98,.9,1.12,1.7,.16,.98-.22,2.16-1.13,3.53-.92,1.37-2.01,2.16-3.29,2.37Z"/>
    <path d="M436.52,96.13l.33,2.55c-4.87,7.11-9.09,10.9-12.66,11.36-1.94,.25-3.57-.44-4.91-2.08-1.34-1.64-2.19-3.9-2.57-6.8-.31-2.34-.02-5.21,.87-8.62,.89-3.4,2.21-6.9,3.97-10.51,1.76-3.61,3.66-6.8,5.7-9.58,2.04-2.78,4-4.79,5.89-6.05,.76-.52,1.38-.81,1.84-.87,.57-.07,.98,.09,1.23,.49,.25,.4,.44,1.12,.57,2.15,.42,3.19-.61,7.32-3.09,12.38-2.47,5.06-6.15,10.37-11.02,15.94-.12,1.23-.13,2.17-.05,2.81,.19,1.47,.72,2.62,1.59,3.44,.87,.82,1.97,1.14,3.31,.97,.68-.09,1.39-.41,2.12-.96,.73-.55,1.49-1.22,2.28-2,.79-.78,2.32-2.32,4.6-4.63Zm-13.04-4.61c1.27-1.36,2.46-2.87,3.59-4.54,1.13-1.67,2.17-3.43,3.12-5.28,.95-1.85,1.67-3.5,2.16-4.95,.49-1.44,.69-2.51,.6-3.2-.07-.53-.32-.76-.76-.71-.16,.02-.46,.19-.89,.5-1.51,1.37-3.09,3.86-4.72,7.47-1.64,3.61-2.67,7.18-3.1,10.69Z"/>
    <path d="M454.14,96.29l-6.86,5.86c-3.26,2.86-5.48,4.35-6.65,4.45-1.07,.09-2.28-.84-3.64-2.81-1.36-1.97-2.1-3.72-2.24-5.27-.11-1.32,.03-2.45,.43-3.4,.4-.95,1.13-2.21,2.18-3.77,1.5-2.11,2.96-3.91,4.38-5.4,1.42-1.49,2.68-2.67,3.79-3.52,1.11-.85,1.9-1.3,2.37-1.34,.74-.06,1.49,.2,2.24,.78,.75,.59,1.16,1.23,1.22,1.92,.04,.44-.28,1.18-.95,2.21s-1.75,2.37-3.26,4c-1.5,1.63-3.62,3.61-6.34,5.94l-.62,1.97c-.19,.39-.27,.72-.25,1,.05,.62,.45,.9,1.19,.84,.77-.07,2.5-1.04,5.19-2.93,2.69-1.89,5.58-4.36,8.65-7.41,1.19-1.2,2.18-2.25,2.96-3.15,.78-.9,1.48-1.75,2.1-2.54,.62-.79,1.14-1.38,1.56-1.79,.42-.41,.81-.64,1.16-.69,.68-.13,1.23,.07,1.67,.59,.43,.52,.69,1.32,.79,2.41,.05,.62-.21,1.43-.78,2.42-.58,.99-1.67,2.69-3.29,5.1s-3.21,4.9-4.8,7.46c-1.59,2.57-3.18,5.45-4.78,8.63,.08-.08,.86-.84,2.35-2.3,1.49-1.45,3.06-2.97,4.72-4.56,1.66-1.59,3.02-2.86,4.1-3.83,1.08-.96,2.43-2.1,4.05-3.4l.2,2.32c-3.41,3.67-6.48,7.13-9.22,10.39-2.74,3.26-4.85,5.86-6.32,7.8-1.48,1.94-2.34,3.07-2.58,3.4-.67,.87-1.27,1.69-1.8,2.44-.53,.76-.98,1.34-1.34,1.76-.37,.42-.67,.63-.92,.66-.58,.05-1.13-.39-1.67-1.3-.54-.92-.83-1.75-.9-2.49-.06-.67,.04-1.27,.3-1.81,1.65-3.91,5.51-10.79,11.59-20.65Z"/>
    <path d="M492.24,73.15c0,.16,.17,.25,.53,.26,.25,0,1.37-.11,3.37-.34,2-.23,3.81-.34,5.43-.33-1.83,.38-3.4,.76-4.71,1.16-1.32,.4-2.67,.84-4.07,1.33-1.4,.49-2.41,.81-3.01,.98-.61,.16-1.13,.24-1.57,.22-1.4-.03-2.09-.81-2.05-2.34,.09-3.94,1.33-6.68,3.73-8.23,.98-.63,2.54-1.36,4.69-2.21,2.15-.84,4.58-1.64,7.28-2.37,2.7-.74,5.66-1.36,8.89-1.87,3.23-.51,6.41-.72,9.55-.65,3.22,.07,6.16,.53,8.84,1.38,2.68,.85,4.91,2.01,6.69,3.47,1.78,1.47,3.14,3.24,4.07,5.33,.93,2.08,1.36,4.41,1.31,6.98-.09,3.92-1.51,7.69-4.28,11.31-2.76,3.62-6.41,6.79-10.94,9.51-4.53,2.71-9.62,4.83-15.27,6.35-5.65,1.52-11.19,2.22-16.63,2.09-1.02-.02-1.82-.13-2.41-.33-.59-.2-1-.57-1.23-1.12-.23-.55-.34-1.36-.32-2.42,.03-1.32,.18-2.39,.44-3.22,.27-.83,.7-1.78,1.3-2.86,4.13-7.3,11.22-16.45,21.29-27.44-1.98,.14-4.16,.44-6.54,.91-2.38,.47-4.63,.99-6.76,1.57-2.13,.58-3.93,1.14-5.4,1.69-1.47,.55-2.21,.95-2.21,1.2Zm22.12-5.55s.05,.31,.15,.79c.1,.48,.14,.89,.14,1.24-.01,.53-.35,1.27-1.02,2.22-.67,.95-1.98,2.63-3.93,5.04-1.95,2.41-3.62,4.53-5.01,6.35-1.39,1.82-3.04,4.17-4.95,7.05-.6,.92-1.01,1.53-1.24,1.85-.23,.32-.59,.85-1.09,1.58s-.86,1.36-1.09,1.89c-.23,.53-.35,.93-.36,1.21-.01,.6,.37,1.03,1.15,1.3,.78,.26,1.9,.41,3.35,.44,3.74,.08,7.71-.4,11.92-1.45,4.2-1.05,8.17-2.56,11.88-4.51s6.7-4.2,8.96-6.72c2.26-2.52,3.42-5.19,3.48-7.99,.07-3.2-1.26-5.69-4-7.48-2.74-1.79-6.76-2.74-12.07-2.86-2.23-.05-4.32-.03-6.27,.07Z"/>
    <path d="M540.87,96.98l.19-2.25c1.6-1.35,2.83-2.52,3.69-3.5-.86-.33-1.47-.69-1.83-1.09-.37-.4-.52-.97-.46-1.71,.07-.83,.57-1.85,1.5-3.05,.93-1.2,2.04-2.31,3.34-3.32,1.3-1.01,2.46-1.63,3.47-1.87,.4-.13,.77-.18,1.13-.15,.55,.04,.8,.29,.77,.73-.03,.39-.53,1.16-1.47,2.29,5.71-.27,9.3-.34,10.78-.22,.58,.05,.97,.13,1.18,.24,.45,.25,.79,.76,1.03,1.55,.24,.79,.33,1.56,.26,2.32-.04,.49-.34,.99-.89,1.51-.56,.52-1.49,1.28-2.82,2.26-1.56,1.2-2.9,2.53-4.02,3.99-1.12,1.47-1.71,2.59-1.77,3.38-.09,1.08,.66,1.69,2.25,1.83,1.67,.14,4.7-1.05,9.07-3.57l-.19,2.32c-2.44,1.82-4.45,3.25-6.03,4.28-1.58,1.03-3.02,1.84-4.34,2.41-1.32,.58-2.47,.82-3.46,.74-1.15-.1-2.07-.62-2.77-1.57-.69-.95-.97-2.27-.83-3.96,.08-.99,.48-2.1,1.19-3.32,.71-1.22,1.71-2.53,3-3.92,1.29-1.39,2.72-2.77,4.3-4.13-.78,.08-1.65,.15-2.63,.22-.97,.07-2,.14-3.08,.21-1.08,.07-1.92,.13-2.5,.18-1.94,2.72-4.62,5.12-8.05,7.18Z"/>
    <path d="M584.55,98.6l-.29,2.52c-2.98,2.58-5.7,4.46-8.17,5.66-2.46,1.2-4.5,1.71-6.11,1.52-2.24-.26-3.79-1.44-4.66-3.55-.87-2.11-1.16-4.33-.89-6.68,.1-.9,.31-1.74,.62-2.53,.31-.79,.65-1.44,1.01-1.93,.36-.49,1.02-1.26,1.97-2.29,4.46-4.64,8.31-6.78,11.53-6.41,1.67,.19,2.44,.83,2.31,1.91-.08,.74-.76,1.83-2.02,3.27-1.26,1.44-2.35,2.45-3.27,3.02-2.6,1.66-4.31,2.83-5.12,3.51-.81,.68-1.27,1.5-1.38,2.47-.09,.83,.19,1.56,.87,2.2,.67,.64,1.6,1.02,2.77,1.16,1.28,.15,2.74-.09,4.38-.7,1.63-.62,3.78-1.66,6.44-3.13Zm-1.01-15.76c-.68-.08-1.31-.37-1.87-.88-.56-.51-.81-1.1-.73-1.76,.12-1.01,.82-2.08,2.11-3.19,1.29-1.11,2.55-1.6,3.78-1.46,.82,.09,1.48,.39,1.98,.88,.5,.49,.7,1.14,.61,1.94-.11,.99-.8,2.02-2.06,3.09-1.26,1.07-2.53,1.53-3.81,1.38Z"/>
    <path d="M588.41,99.23l-1.16,2.78c-.16,.35-.28,.76-.35,1.21-.18,1.24,.34,1.95,1.56,2.13,1.17,.17,4.3-1.33,9.38-4.52,.25-1.49,1.16-3.11,2.74-4.87,1.58-1.76,3.26-3.25,5.04-4.49,1.78-1.24,3.05-1.8,3.81-1.69,1.2,.18,1.7,.93,1.5,2.26-.12,.8-.49,1.75-1.13,2.84-.63,1.09-1.5,2.24-2.6,3.45-1.1,1.21-2.4,2.43-3.92,3.65,.53,1.13,1.14,1.75,1.85,1.86,.6,.09,1.28,0,2.06-.24,.77-.25,1.76-.66,2.96-1.23l-.34,2.3c-1.67,.78-2.98,1.29-3.92,1.53-.94,.24-2.1,.25-3.49,.05-.54-.08-1.48-.54-2.8-1.36-3.14,2.07-5.67,3.58-7.6,4.55-1.92,.97-3.43,1.37-4.52,1.21-1.88-.28-3.33-1.46-4.37-3.55-1.04-2.09-1.39-4.27-1.06-6.53,.45-3.05,3.03-6.4,7.74-10.07,1.41-1.1,2.53-1.83,3.35-2.19,.82-.36,1.7-.47,2.65-.33,.82,.12,1.57,.36,2.27,.72,.7,.36,1.02,.71,.97,1.06-.17,1.15-1.33,2.69-3.48,4.63-2.15,1.94-4.54,3.55-7.18,4.83Z"/>
    <path d="M615.25,104.65l-.16,.85c-.25,1.35-.05,2.47,.6,3.36,.65,.9,1.6,1.46,2.88,1.7,1.33,.24,2.75,.24,4.26-.03,1.52-.26,3.06-.7,4.62-1.31,1.56-.61,3.5-1.45,5.79-2.54l-.38,2.08c-3.63,2.54-6.93,4.39-9.91,5.54-2.98,1.16-5.85,1.49-8.61,.98-2.41-.44-4.17-1.58-5.29-3.41-1.12-1.83-1.42-4.12-.92-6.85,.44-2.39,1.5-4.44,3.19-6.15,1.68-1.71,4.23-3.36,7.63-4.98,2.33-1.1,4.58-1.84,6.74-2.22s4.05-.42,5.64-.13c1.27,.23,2.23,.67,2.89,1.29,.65,.63,.89,1.43,.71,2.41-.26,1.44-1.16,2.75-2.7,3.94-1.53,1.19-3.74,2.25-6.6,3.17-2.87,.92-6.33,1.68-10.38,2.28Zm.82-2.15c2.58-.35,4.85-.96,6.8-1.82,1.95-.87,3.43-1.77,4.46-2.7,1.02-.93,1.58-1.65,1.67-2.15,.1-.52-.14-.84-.71-.94-.49-.09-1.33,.03-2.52,.35-1.19,.32-2.43,.8-3.71,1.44s-2.47,1.44-3.57,2.42c-1.1,.97-1.91,2.11-2.43,3.4Z"/>
    <path d="M631.17,109.03l.48-2.21c1.77-1.13,3.14-2.13,4.11-2.98-.81-.44-1.36-.88-1.67-1.33s-.39-1.03-.23-1.76c.18-.81,.81-1.76,1.88-2.83,1.08-1.07,2.33-2.02,3.75-2.85,1.42-.83,2.65-1.3,3.68-1.4,.41-.08,.79-.08,1.14,0,.54,.12,.76,.39,.67,.82-.08,.39-.67,1.08-1.76,2.07,5.69,.48,9.26,.88,10.72,1.2,.56,.12,.94,.25,1.14,.39,.41,.3,.68,.86,.82,1.67,.13,.81,.12,1.59-.04,2.34-.1,.47-.46,.94-1.08,1.38-.62,.45-1.65,1.07-3.09,1.87-1.71,.98-3.21,2.12-4.5,3.43-1.3,1.31-2.03,2.34-2.2,3.11-.23,1.06,.43,1.77,1.99,2.11,1.64,.36,4.79-.43,9.46-2.35l-.5,2.28c-2.66,1.48-4.84,2.63-6.54,3.45-1.7,.82-3.24,1.42-4.62,1.82-1.38,.4-2.56,.49-3.52,.28-1.13-.25-1.97-.89-2.54-1.92-.56-1.04-.66-2.38-.3-4.03,.21-.97,.75-2.02,1.61-3.14,.86-1.12,2.02-2.28,3.48-3.49s3.06-2.39,4.8-3.52c-.78-.03-1.66-.07-2.63-.13-.97-.06-2-.12-3.08-.19-1.08-.07-1.92-.12-2.5-.15-2.28,2.45-5.25,4.47-8.92,6.06Z"/>
    <path d="M654.77,112.41l.2-.81c8.42-4.37,14.24-7.46,17.45-9.25,1.29-2.62,3.05-3.64,5.29-3.07,.56,.14,1.13,.43,1.7,.86l.08,.7c-.17,.24-.32,.61-.45,1.11-.11,.43-.12,1.27-.02,2.52,.09,1.26,.15,2.3,.16,3.14,.01,.84-.1,1.76-.35,2.74-.38,1.48-1.13,2.8-2.28,3.96-1.14,1.16-2.63,2.17-4.47,3.03-1.83,.86-4.12,1.64-6.85,2.34,.92,.38,1.67,.64,2.23,.78,1.09,.28,2.33,.34,3.71,.2,1.38-.14,2.83-.43,4.35-.87,1.52-.44,3.31-1.06,5.38-1.85l-.57,2.26c-4.12,1.95-7.71,3.3-10.77,4.07-3.06,.77-5.56,.91-7.51,.41-2.51-.63-4.6-2.12-6.28-4.46-.98-1.4-1.5-2.63-1.55-3.69-.06-1.07,.13-2.44,.55-4.13Zm16.22-1.38l.52-5.1c-2.05,1.16-6.35,3.28-12.89,6.39,1.53,.7,2.52,1.37,2.98,2.01,.46,.64,1.05,1.81,1.75,3.49,1.97-.17,3.58-.68,4.83-1.52,1.25-.84,2.11-2.21,2.59-4.1,.06-.22,.1-.43,.13-.61,.03-.18,.06-.37,.08-.55Z"/>
  </g>
</svg>